M48
; DRILL file {KiCad 9.0.4} date 2025-09-14T23:12:39-0400
; FORMAT={-:-/ absolute / inch / decimal}
; #@! TF.CreationDate,2025-09-14T23:12:39-04:00
; #@! TF.GenerationSoftware,Kicad,Pcbnew,9.0.4
; #@! TF.FileFunction,Plated,1,2,PTH
FMAT,2
INCH
; #@! TA.AperFunction,Plated,PTH,ComponentDrill
T1C0.0079
; #@! TA.AperFunction,Plated,PTH,ViaDrill
T2C0.0118
; #@! TA.AperFunction,Plated,PTH,ComponentDrill
T3C0.0236
; #@! TA.AperFunction,Plated,PTH,ComponentDrill
T4C0.0394
; #@! TA.AperFunction,Plated,PTH,ComponentDrill
T5C0.0669
%
G90
G05
T1
X7.1083Y-4.5098
X7.1083Y-4.5669
X7.1083Y-4.624
X7.1654Y-4.5098
X7.1654Y-4.5669
X7.1654Y-4.624
X7.2224Y-4.5098
X7.2224Y-4.5669
X7.2224Y-4.624
T2
X6.499Y-3.9606
X6.5335Y-4.8406
X6.5472Y-3.9606
X6.5531Y-4.435
X6.5531Y-4.5138
X6.5531Y-4.5925
X6.6299Y-4.3957
X6.6535Y-4.435
X6.6535Y-4.5138
X6.6535Y-4.5925
X6.689Y-5.0079
X6.7185Y-5.0079
X6.7579Y-4.122
X6.7803Y-4.8591
X6.8219Y-4.4292
X6.8622Y-4.438
X6.8622Y-4.5276
X6.8622Y-4.622
X6.9085Y-4.8219
X6.9606Y-4.5276
X6.9665Y-4.0512
X6.9961Y-4.1161
X7.002Y-4.7047
X7.0031Y-4.8792
X7.0463Y-4.7352
X7.0528Y-4.2567
X7.063Y-4.9213
X7.063Y-4.9705
X7.063Y-5.0197
X7.063Y-5.0699
X7.063Y-5.1299
X7.0797Y-4.5354
X7.0945Y-4.8543
X7.1043Y-4.1457
X7.1634Y-5.1299
X7.1732Y-4.6526
X7.1732Y-4.7953
X7.1846Y-4.4823
X7.185Y-4.3622
X7.1851Y-4.3386
X7.2323Y-4.8563
X7.2421Y-4.122
X7.25Y-4.5512
X7.2697Y-4.0531
X7.2756Y-4.9213
X7.2756Y-4.9705
X7.2756Y-5.0197
X7.2756Y-5.0699
X7.2756Y-5.1299
X7.2874Y-4.3504
X7.2874Y-4.374
X7.3169Y-4.4154
X7.3937Y-4.5512
X7.3972Y-4.5197
X7.4242Y-4.4272
X7.4242Y-4.4567
X7.4429Y-4.7205
X7.4577Y-4.4291
X7.4803Y-4.6909
X7.4882Y-4.9675
X7.4917Y-4.5433
X7.4917Y-4.5827
X7.4921Y-4.2677
X7.5079Y-4.0256
X7.5089Y-4.4449
X7.5354Y-4.3091
X7.5374Y-4.3504
X7.5374Y-4.7028
X7.5394Y-3.9665
X7.5394Y-4.6654
X7.5541Y-4.3278
X7.5541Y-4.8022
X7.5571Y-4.685
X7.56Y-4.4488
X7.563Y-4.8563
X7.5817Y-4.3858
X7.5827Y-4.4744
X7.6004Y-3.9882
X7.6004Y-4.0118
X7.6122Y-3.9252
X7.6122Y-3.9488
X7.6457Y-3.9705
X7.6565Y-4.502
X7.6565Y-4.8612
X7.6693Y-3.9705
X7.6693Y-4.5236
X7.6693Y-4.8829
X7.6821Y-4.502
X7.6821Y-4.8612
X7.7362Y-4.8307
X7.7372Y-4.4724
X7.7789Y-4.4724
X7.7795Y-4.8307
T4
X6.7215Y-5.0748
X6.8215Y-5.0748
X6.9215Y-5.0748
X7.9569Y-4.4051
X7.9569Y-4.5035
X7.9573Y-4.739
X7.9573Y-4.8374
T5
X7.8602Y-4.0275
X7.8602Y-4.1834
T3
G00X6.952Y-3.8455
M15
G01X6.952Y-3.814
M16
G05
G00X6.952Y-4.0159
M15
G01X6.952Y-3.9726
M16
G05
G00X7.2921Y-3.8455
M15
G01X7.2921Y-3.814
M16
G05
G00X7.2921Y-4.0159
M15
G01X7.2921Y-3.9726
M16
G05
M30
