%TF.GenerationSoftware,KiCad,Pcbnew,9.0.3*%
%TF.CreationDate,2025-08-14T12:49:38-04:00*%
%TF.ProjectId,rotour_mt6701_breakout,726f746f-7572-45f6-9d74-363730315f62,rev?*%
%TF.SameCoordinates,Original*%
%TF.FileFunction,Legend,Top*%
%TF.FilePolarity,Positive*%
%FSLAX46Y46*%
G04 Gerber Fmt 4.6, Leading zero omitted, Abs format (unit mm)*
G04 Created by KiCad (PCBNEW 9.0.3) date 2025-08-14 12:49:38*
%MOMM*%
%LPD*%
G01*
G04 APERTURE LIST*
G04 Aperture macros list*
%AMRoundRect*
0 Rectangle with rounded corners*
0 $1 Rounding radius*
0 $2 $3 $4 $5 $6 $7 $8 $9 X,Y pos of 4 corners*
0 Add a 4 corners polygon primitive as box body*
4,1,4,$2,$3,$4,$5,$6,$7,$8,$9,$2,$3,0*
0 Add four circle primitives for the rounded corners*
1,1,$1+$1,$2,$3*
1,1,$1+$1,$4,$5*
1,1,$1+$1,$6,$7*
1,1,$1+$1,$8,$9*
0 Add four rect primitives between the rounded corners*
20,1,$1+$1,$2,$3,$4,$5,0*
20,1,$1+$1,$4,$5,$6,$7,0*
20,1,$1+$1,$6,$7,$8,$9,0*
20,1,$1+$1,$8,$9,$2,$3,0*%
G04 Aperture macros list end*
%ADD10C,0.150000*%
%ADD11C,0.120000*%
%ADD12RoundRect,0.062500X-0.350000X-0.062500X0.350000X-0.062500X0.350000X0.062500X-0.350000X0.062500X0*%
%ADD13RoundRect,0.062500X-0.062500X-0.350000X0.062500X-0.350000X0.062500X0.350000X-0.062500X0.350000X0*%
%ADD14R,1.700000X1.700000*%
%ADD15C,2.200000*%
%ADD16RoundRect,0.225000X0.225000X0.375000X-0.225000X0.375000X-0.225000X-0.375000X0.225000X-0.375000X0*%
%ADD17RoundRect,0.140000X0.140000X0.170000X-0.140000X0.170000X-0.140000X-0.170000X0.140000X-0.170000X0*%
%ADD18RoundRect,0.150000X-0.150000X-0.625000X0.150000X-0.625000X0.150000X0.625000X-0.150000X0.625000X0*%
%ADD19RoundRect,0.250000X-0.350000X-0.650000X0.350000X-0.650000X0.350000X0.650000X-0.350000X0.650000X0*%
G04 APERTURE END LIST*
D10*
X148562969Y-92962295D02*
X149058207Y-92962295D01*
X149058207Y-92962295D02*
X148791541Y-93267057D01*
X148791541Y-93267057D02*
X148905826Y-93267057D01*
X148905826Y-93267057D02*
X148982017Y-93305152D01*
X148982017Y-93305152D02*
X149020112Y-93343247D01*
X149020112Y-93343247D02*
X149058207Y-93419438D01*
X149058207Y-93419438D02*
X149058207Y-93609914D01*
X149058207Y-93609914D02*
X149020112Y-93686104D01*
X149020112Y-93686104D02*
X148982017Y-93724200D01*
X148982017Y-93724200D02*
X148905826Y-93762295D01*
X148905826Y-93762295D02*
X148677255Y-93762295D01*
X148677255Y-93762295D02*
X148601064Y-93724200D01*
X148601064Y-93724200D02*
X148562969Y-93686104D01*
X149286779Y-92962295D02*
X149553446Y-93762295D01*
X149553446Y-93762295D02*
X149820112Y-92962295D01*
X150010588Y-92962295D02*
X150505826Y-92962295D01*
X150505826Y-92962295D02*
X150239160Y-93267057D01*
X150239160Y-93267057D02*
X150353445Y-93267057D01*
X150353445Y-93267057D02*
X150429636Y-93305152D01*
X150429636Y-93305152D02*
X150467731Y-93343247D01*
X150467731Y-93343247D02*
X150505826Y-93419438D01*
X150505826Y-93419438D02*
X150505826Y-93609914D01*
X150505826Y-93609914D02*
X150467731Y-93686104D01*
X150467731Y-93686104D02*
X150429636Y-93724200D01*
X150429636Y-93724200D02*
X150353445Y-93762295D01*
X150353445Y-93762295D02*
X150124874Y-93762295D01*
X150124874Y-93762295D02*
X150048683Y-93724200D01*
X150048683Y-93724200D02*
X150010588Y-93686104D01*
X145336104Y-92653696D02*
X145374200Y-92691792D01*
X145374200Y-92691792D02*
X145412295Y-92806077D01*
X145412295Y-92806077D02*
X145412295Y-92882268D01*
X145412295Y-92882268D02*
X145374200Y-92996554D01*
X145374200Y-92996554D02*
X145298009Y-93072744D01*
X145298009Y-93072744D02*
X145221819Y-93110839D01*
X145221819Y-93110839D02*
X145069438Y-93148935D01*
X145069438Y-93148935D02*
X144955152Y-93148935D01*
X144955152Y-93148935D02*
X144802771Y-93110839D01*
X144802771Y-93110839D02*
X144726580Y-93072744D01*
X144726580Y-93072744D02*
X144650390Y-92996554D01*
X144650390Y-92996554D02*
X144612295Y-92882268D01*
X144612295Y-92882268D02*
X144612295Y-92806077D01*
X144612295Y-92806077D02*
X144650390Y-92691792D01*
X144650390Y-92691792D02*
X144688485Y-92653696D01*
X145412295Y-91929887D02*
X145412295Y-92310839D01*
X145412295Y-92310839D02*
X144612295Y-92310839D01*
X145412295Y-91663220D02*
X144612295Y-91663220D01*
X145412295Y-91206077D02*
X144955152Y-91548935D01*
X144612295Y-91206077D02*
X145069438Y-91663220D01*
X151987704Y-83154761D02*
X151416276Y-83154761D01*
X151416276Y-83154761D02*
X151301990Y-83116666D01*
X151301990Y-83116666D02*
X151225800Y-83040475D01*
X151225800Y-83040475D02*
X151187704Y-82926190D01*
X151187704Y-82926190D02*
X151187704Y-82849999D01*
X151187704Y-83916666D02*
X151187704Y-83535714D01*
X151187704Y-83535714D02*
X151987704Y-83535714D01*
X151263895Y-84640476D02*
X151225800Y-84602380D01*
X151225800Y-84602380D02*
X151187704Y-84488095D01*
X151187704Y-84488095D02*
X151187704Y-84411904D01*
X151187704Y-84411904D02*
X151225800Y-84297618D01*
X151225800Y-84297618D02*
X151301990Y-84221428D01*
X151301990Y-84221428D02*
X151378180Y-84183333D01*
X151378180Y-84183333D02*
X151530561Y-84145237D01*
X151530561Y-84145237D02*
X151644847Y-84145237D01*
X151644847Y-84145237D02*
X151797228Y-84183333D01*
X151797228Y-84183333D02*
X151873419Y-84221428D01*
X151873419Y-84221428D02*
X151949609Y-84297618D01*
X151949609Y-84297618D02*
X151987704Y-84411904D01*
X151987704Y-84411904D02*
X151987704Y-84488095D01*
X151987704Y-84488095D02*
X151949609Y-84602380D01*
X151949609Y-84602380D02*
X151911514Y-84640476D01*
X151987704Y-85211904D02*
X151416276Y-85211904D01*
X151416276Y-85211904D02*
X151301990Y-85173809D01*
X151301990Y-85173809D02*
X151225800Y-85097618D01*
X151225800Y-85097618D02*
X151187704Y-84983333D01*
X151187704Y-84983333D02*
X151187704Y-84907142D01*
X151187704Y-85973809D02*
X151187704Y-85592857D01*
X151187704Y-85592857D02*
X151987704Y-85592857D01*
X151263895Y-86697619D02*
X151225800Y-86659523D01*
X151225800Y-86659523D02*
X151187704Y-86545238D01*
X151187704Y-86545238D02*
X151187704Y-86469047D01*
X151187704Y-86469047D02*
X151225800Y-86354761D01*
X151225800Y-86354761D02*
X151301990Y-86278571D01*
X151301990Y-86278571D02*
X151378180Y-86240476D01*
X151378180Y-86240476D02*
X151530561Y-86202380D01*
X151530561Y-86202380D02*
X151644847Y-86202380D01*
X151644847Y-86202380D02*
X151797228Y-86240476D01*
X151797228Y-86240476D02*
X151873419Y-86278571D01*
X151873419Y-86278571D02*
X151949609Y-86354761D01*
X151949609Y-86354761D02*
X151987704Y-86469047D01*
X151987704Y-86469047D02*
X151987704Y-86545238D01*
X151987704Y-86545238D02*
X151949609Y-86659523D01*
X151949609Y-86659523D02*
X151911514Y-86697619D01*
X151987704Y-87269047D02*
X151416276Y-87269047D01*
X151416276Y-87269047D02*
X151301990Y-87230952D01*
X151301990Y-87230952D02*
X151225800Y-87154761D01*
X151225800Y-87154761D02*
X151187704Y-87040476D01*
X151187704Y-87040476D02*
X151187704Y-86964285D01*
X151187704Y-88030952D02*
X151187704Y-87650000D01*
X151187704Y-87650000D02*
X151987704Y-87650000D01*
X151263895Y-88754762D02*
X151225800Y-88716666D01*
X151225800Y-88716666D02*
X151187704Y-88602381D01*
X151187704Y-88602381D02*
X151187704Y-88526190D01*
X151187704Y-88526190D02*
X151225800Y-88411904D01*
X151225800Y-88411904D02*
X151301990Y-88335714D01*
X151301990Y-88335714D02*
X151378180Y-88297619D01*
X151378180Y-88297619D02*
X151530561Y-88259523D01*
X151530561Y-88259523D02*
X151644847Y-88259523D01*
X151644847Y-88259523D02*
X151797228Y-88297619D01*
X151797228Y-88297619D02*
X151873419Y-88335714D01*
X151873419Y-88335714D02*
X151949609Y-88411904D01*
X151949609Y-88411904D02*
X151987704Y-88526190D01*
X151987704Y-88526190D02*
X151987704Y-88602381D01*
X151987704Y-88602381D02*
X151949609Y-88716666D01*
X151949609Y-88716666D02*
X151911514Y-88754762D01*
X151987704Y-89326190D02*
X151416276Y-89326190D01*
X151416276Y-89326190D02*
X151301990Y-89288095D01*
X151301990Y-89288095D02*
X151225800Y-89211904D01*
X151225800Y-89211904D02*
X151187704Y-89097619D01*
X151187704Y-89097619D02*
X151187704Y-89021428D01*
X151187704Y-90088095D02*
X151187704Y-89707143D01*
X151187704Y-89707143D02*
X151987704Y-89707143D01*
X151263895Y-90811905D02*
X151225800Y-90773809D01*
X151225800Y-90773809D02*
X151187704Y-90659524D01*
X151187704Y-90659524D02*
X151187704Y-90583333D01*
X151187704Y-90583333D02*
X151225800Y-90469047D01*
X151225800Y-90469047D02*
X151301990Y-90392857D01*
X151301990Y-90392857D02*
X151378180Y-90354762D01*
X151378180Y-90354762D02*
X151530561Y-90316666D01*
X151530561Y-90316666D02*
X151644847Y-90316666D01*
X151644847Y-90316666D02*
X151797228Y-90354762D01*
X151797228Y-90354762D02*
X151873419Y-90392857D01*
X151873419Y-90392857D02*
X151949609Y-90469047D01*
X151949609Y-90469047D02*
X151987704Y-90583333D01*
X151987704Y-90583333D02*
X151987704Y-90659524D01*
X151987704Y-90659524D02*
X151949609Y-90773809D01*
X151949609Y-90773809D02*
X151911514Y-90811905D01*
X147336104Y-92653696D02*
X147374200Y-92691792D01*
X147374200Y-92691792D02*
X147412295Y-92806077D01*
X147412295Y-92806077D02*
X147412295Y-92882268D01*
X147412295Y-92882268D02*
X147374200Y-92996554D01*
X147374200Y-92996554D02*
X147298009Y-93072744D01*
X147298009Y-93072744D02*
X147221819Y-93110839D01*
X147221819Y-93110839D02*
X147069438Y-93148935D01*
X147069438Y-93148935D02*
X146955152Y-93148935D01*
X146955152Y-93148935D02*
X146802771Y-93110839D01*
X146802771Y-93110839D02*
X146726580Y-93072744D01*
X146726580Y-93072744D02*
X146650390Y-92996554D01*
X146650390Y-92996554D02*
X146612295Y-92882268D01*
X146612295Y-92882268D02*
X146612295Y-92806077D01*
X146612295Y-92806077D02*
X146650390Y-92691792D01*
X146650390Y-92691792D02*
X146688485Y-92653696D01*
X147374200Y-92348935D02*
X147412295Y-92234649D01*
X147412295Y-92234649D02*
X147412295Y-92044173D01*
X147412295Y-92044173D02*
X147374200Y-91967982D01*
X147374200Y-91967982D02*
X147336104Y-91929887D01*
X147336104Y-91929887D02*
X147259914Y-91891792D01*
X147259914Y-91891792D02*
X147183723Y-91891792D01*
X147183723Y-91891792D02*
X147107533Y-91929887D01*
X147107533Y-91929887D02*
X147069438Y-91967982D01*
X147069438Y-91967982D02*
X147031342Y-92044173D01*
X147031342Y-92044173D02*
X146993247Y-92196554D01*
X146993247Y-92196554D02*
X146955152Y-92272744D01*
X146955152Y-92272744D02*
X146917057Y-92310839D01*
X146917057Y-92310839D02*
X146840866Y-92348935D01*
X146840866Y-92348935D02*
X146764676Y-92348935D01*
X146764676Y-92348935D02*
X146688485Y-92310839D01*
X146688485Y-92310839D02*
X146650390Y-92272744D01*
X146650390Y-92272744D02*
X146612295Y-92196554D01*
X146612295Y-92196554D02*
X146612295Y-92006077D01*
X146612295Y-92006077D02*
X146650390Y-91891792D01*
X143412295Y-93110839D02*
X142612295Y-93110839D01*
X142612295Y-93110839D02*
X143183723Y-92844173D01*
X143183723Y-92844173D02*
X142612295Y-92577506D01*
X142612295Y-92577506D02*
X143412295Y-92577506D01*
X143412295Y-92196553D02*
X142612295Y-92196553D01*
X143374200Y-91853697D02*
X143412295Y-91739411D01*
X143412295Y-91739411D02*
X143412295Y-91548935D01*
X143412295Y-91548935D02*
X143374200Y-91472744D01*
X143374200Y-91472744D02*
X143336104Y-91434649D01*
X143336104Y-91434649D02*
X143259914Y-91396554D01*
X143259914Y-91396554D02*
X143183723Y-91396554D01*
X143183723Y-91396554D02*
X143107533Y-91434649D01*
X143107533Y-91434649D02*
X143069438Y-91472744D01*
X143069438Y-91472744D02*
X143031342Y-91548935D01*
X143031342Y-91548935D02*
X142993247Y-91701316D01*
X142993247Y-91701316D02*
X142955152Y-91777506D01*
X142955152Y-91777506D02*
X142917057Y-91815601D01*
X142917057Y-91815601D02*
X142840866Y-91853697D01*
X142840866Y-91853697D02*
X142764676Y-91853697D01*
X142764676Y-91853697D02*
X142688485Y-91815601D01*
X142688485Y-91815601D02*
X142650390Y-91777506D01*
X142650390Y-91777506D02*
X142612295Y-91701316D01*
X142612295Y-91701316D02*
X142612295Y-91510839D01*
X142612295Y-91510839D02*
X142650390Y-91396554D01*
X142612295Y-90901315D02*
X142612295Y-90748934D01*
X142612295Y-90748934D02*
X142650390Y-90672744D01*
X142650390Y-90672744D02*
X142726580Y-90596553D01*
X142726580Y-90596553D02*
X142878961Y-90558458D01*
X142878961Y-90558458D02*
X143145628Y-90558458D01*
X143145628Y-90558458D02*
X143298009Y-90596553D01*
X143298009Y-90596553D02*
X143374200Y-90672744D01*
X143374200Y-90672744D02*
X143412295Y-90748934D01*
X143412295Y-90748934D02*
X143412295Y-90901315D01*
X143412295Y-90901315D02*
X143374200Y-90977506D01*
X143374200Y-90977506D02*
X143298009Y-91053696D01*
X143298009Y-91053696D02*
X143145628Y-91091792D01*
X143145628Y-91091792D02*
X142878961Y-91091792D01*
X142878961Y-91091792D02*
X142726580Y-91053696D01*
X142726580Y-91053696D02*
X142650390Y-90977506D01*
X142650390Y-90977506D02*
X142612295Y-90901315D01*
X143600390Y-92691792D02*
X143562295Y-92767982D01*
X143562295Y-92767982D02*
X143562295Y-92882268D01*
X143562295Y-92882268D02*
X143600390Y-92996554D01*
X143600390Y-92996554D02*
X143676580Y-93072744D01*
X143676580Y-93072744D02*
X143752771Y-93110839D01*
X143752771Y-93110839D02*
X143905152Y-93148935D01*
X143905152Y-93148935D02*
X144019438Y-93148935D01*
X144019438Y-93148935D02*
X144171819Y-93110839D01*
X144171819Y-93110839D02*
X144248009Y-93072744D01*
X144248009Y-93072744D02*
X144324200Y-92996554D01*
X144324200Y-92996554D02*
X144362295Y-92882268D01*
X144362295Y-92882268D02*
X144362295Y-92806077D01*
X144362295Y-92806077D02*
X144324200Y-92691792D01*
X144324200Y-92691792D02*
X144286104Y-92653696D01*
X144286104Y-92653696D02*
X144019438Y-92653696D01*
X144019438Y-92653696D02*
X144019438Y-92806077D01*
X144362295Y-92310839D02*
X143562295Y-92310839D01*
X143562295Y-92310839D02*
X144362295Y-91853696D01*
X144362295Y-91853696D02*
X143562295Y-91853696D01*
X144362295Y-91472744D02*
X143562295Y-91472744D01*
X143562295Y-91472744D02*
X143562295Y-91282268D01*
X143562295Y-91282268D02*
X143600390Y-91167982D01*
X143600390Y-91167982D02*
X143676580Y-91091792D01*
X143676580Y-91091792D02*
X143752771Y-91053697D01*
X143752771Y-91053697D02*
X143905152Y-91015601D01*
X143905152Y-91015601D02*
X144019438Y-91015601D01*
X144019438Y-91015601D02*
X144171819Y-91053697D01*
X144171819Y-91053697D02*
X144248009Y-91091792D01*
X144248009Y-91091792D02*
X144324200Y-91167982D01*
X144324200Y-91167982D02*
X144362295Y-91282268D01*
X144362295Y-91282268D02*
X144362295Y-91472744D01*
X145650390Y-92691792D02*
X145612295Y-92767982D01*
X145612295Y-92767982D02*
X145612295Y-92882268D01*
X145612295Y-92882268D02*
X145650390Y-92996554D01*
X145650390Y-92996554D02*
X145726580Y-93072744D01*
X145726580Y-93072744D02*
X145802771Y-93110839D01*
X145802771Y-93110839D02*
X145955152Y-93148935D01*
X145955152Y-93148935D02*
X146069438Y-93148935D01*
X146069438Y-93148935D02*
X146221819Y-93110839D01*
X146221819Y-93110839D02*
X146298009Y-93072744D01*
X146298009Y-93072744D02*
X146374200Y-92996554D01*
X146374200Y-92996554D02*
X146412295Y-92882268D01*
X146412295Y-92882268D02*
X146412295Y-92806077D01*
X146412295Y-92806077D02*
X146374200Y-92691792D01*
X146374200Y-92691792D02*
X146336104Y-92653696D01*
X146336104Y-92653696D02*
X146069438Y-92653696D01*
X146069438Y-92653696D02*
X146069438Y-92806077D01*
X146412295Y-92310839D02*
X145612295Y-92310839D01*
X145612295Y-92310839D02*
X146412295Y-91853696D01*
X146412295Y-91853696D02*
X145612295Y-91853696D01*
X146412295Y-91472744D02*
X145612295Y-91472744D01*
X145612295Y-91472744D02*
X145612295Y-91282268D01*
X145612295Y-91282268D02*
X145650390Y-91167982D01*
X145650390Y-91167982D02*
X145726580Y-91091792D01*
X145726580Y-91091792D02*
X145802771Y-91053697D01*
X145802771Y-91053697D02*
X145955152Y-91015601D01*
X145955152Y-91015601D02*
X146069438Y-91015601D01*
X146069438Y-91015601D02*
X146221819Y-91053697D01*
X146221819Y-91053697D02*
X146298009Y-91091792D01*
X146298009Y-91091792D02*
X146374200Y-91167982D01*
X146374200Y-91167982D02*
X146412295Y-91282268D01*
X146412295Y-91282268D02*
X146412295Y-91472744D01*
X139512744Y-93000390D02*
X139436554Y-92962295D01*
X139436554Y-92962295D02*
X139322268Y-92962295D01*
X139322268Y-92962295D02*
X139207982Y-93000390D01*
X139207982Y-93000390D02*
X139131792Y-93076580D01*
X139131792Y-93076580D02*
X139093697Y-93152771D01*
X139093697Y-93152771D02*
X139055601Y-93305152D01*
X139055601Y-93305152D02*
X139055601Y-93419438D01*
X139055601Y-93419438D02*
X139093697Y-93571819D01*
X139093697Y-93571819D02*
X139131792Y-93648009D01*
X139131792Y-93648009D02*
X139207982Y-93724200D01*
X139207982Y-93724200D02*
X139322268Y-93762295D01*
X139322268Y-93762295D02*
X139398459Y-93762295D01*
X139398459Y-93762295D02*
X139512744Y-93724200D01*
X139512744Y-93724200D02*
X139550840Y-93686104D01*
X139550840Y-93686104D02*
X139550840Y-93419438D01*
X139550840Y-93419438D02*
X139398459Y-93419438D01*
X139893697Y-93762295D02*
X139893697Y-92962295D01*
X139893697Y-92962295D02*
X140350840Y-93762295D01*
X140350840Y-93762295D02*
X140350840Y-92962295D01*
X140731792Y-93762295D02*
X140731792Y-92962295D01*
X140731792Y-92962295D02*
X140922268Y-92962295D01*
X140922268Y-92962295D02*
X141036554Y-93000390D01*
X141036554Y-93000390D02*
X141112744Y-93076580D01*
X141112744Y-93076580D02*
X141150839Y-93152771D01*
X141150839Y-93152771D02*
X141188935Y-93305152D01*
X141188935Y-93305152D02*
X141188935Y-93419438D01*
X141188935Y-93419438D02*
X141150839Y-93571819D01*
X141150839Y-93571819D02*
X141112744Y-93648009D01*
X141112744Y-93648009D02*
X141036554Y-93724200D01*
X141036554Y-93724200D02*
X140922268Y-93762295D01*
X140922268Y-93762295D02*
X140731792Y-93762295D01*
X141590476Y-86362295D02*
X141590476Y-87009914D01*
X141590476Y-87009914D02*
X141628571Y-87086104D01*
X141628571Y-87086104D02*
X141666666Y-87124200D01*
X141666666Y-87124200D02*
X141742857Y-87162295D01*
X141742857Y-87162295D02*
X141895238Y-87162295D01*
X141895238Y-87162295D02*
X141971428Y-87124200D01*
X141971428Y-87124200D02*
X142009523Y-87086104D01*
X142009523Y-87086104D02*
X142047619Y-87009914D01*
X142047619Y-87009914D02*
X142047619Y-86362295D01*
X142847618Y-87162295D02*
X142390475Y-87162295D01*
X142619047Y-87162295D02*
X142619047Y-86362295D01*
X142619047Y-86362295D02*
X142542856Y-86476580D01*
X142542856Y-86476580D02*
X142466666Y-86552771D01*
X142466666Y-86552771D02*
X142390475Y-86590866D01*
X146209524Y-84562295D02*
X146209524Y-83762295D01*
X146209524Y-83762295D02*
X146400000Y-83762295D01*
X146400000Y-83762295D02*
X146514286Y-83800390D01*
X146514286Y-83800390D02*
X146590476Y-83876580D01*
X146590476Y-83876580D02*
X146628571Y-83952771D01*
X146628571Y-83952771D02*
X146666667Y-84105152D01*
X146666667Y-84105152D02*
X146666667Y-84219438D01*
X146666667Y-84219438D02*
X146628571Y-84371819D01*
X146628571Y-84371819D02*
X146590476Y-84448009D01*
X146590476Y-84448009D02*
X146514286Y-84524200D01*
X146514286Y-84524200D02*
X146400000Y-84562295D01*
X146400000Y-84562295D02*
X146209524Y-84562295D01*
X147428571Y-84562295D02*
X146971428Y-84562295D01*
X147200000Y-84562295D02*
X147200000Y-83762295D01*
X147200000Y-83762295D02*
X147123809Y-83876580D01*
X147123809Y-83876580D02*
X147047619Y-83952771D01*
X147047619Y-83952771D02*
X146971428Y-83990866D01*
X143016667Y-84486104D02*
X142978571Y-84524200D01*
X142978571Y-84524200D02*
X142864286Y-84562295D01*
X142864286Y-84562295D02*
X142788095Y-84562295D01*
X142788095Y-84562295D02*
X142673809Y-84524200D01*
X142673809Y-84524200D02*
X142597619Y-84448009D01*
X142597619Y-84448009D02*
X142559524Y-84371819D01*
X142559524Y-84371819D02*
X142521428Y-84219438D01*
X142521428Y-84219438D02*
X142521428Y-84105152D01*
X142521428Y-84105152D02*
X142559524Y-83952771D01*
X142559524Y-83952771D02*
X142597619Y-83876580D01*
X142597619Y-83876580D02*
X142673809Y-83800390D01*
X142673809Y-83800390D02*
X142788095Y-83762295D01*
X142788095Y-83762295D02*
X142864286Y-83762295D01*
X142864286Y-83762295D02*
X142978571Y-83800390D01*
X142978571Y-83800390D02*
X143016667Y-83838485D01*
X143778571Y-84562295D02*
X143321428Y-84562295D01*
X143550000Y-84562295D02*
X143550000Y-83762295D01*
X143550000Y-83762295D02*
X143473809Y-83876580D01*
X143473809Y-83876580D02*
X143397619Y-83952771D01*
X143397619Y-83952771D02*
X143321428Y-83990866D01*
X150566666Y-94454819D02*
X150566666Y-95169104D01*
X150566666Y-95169104D02*
X150519047Y-95311961D01*
X150519047Y-95311961D02*
X150423809Y-95407200D01*
X150423809Y-95407200D02*
X150280952Y-95454819D01*
X150280952Y-95454819D02*
X150185714Y-95454819D01*
X151566666Y-95454819D02*
X150995238Y-95454819D01*
X151280952Y-95454819D02*
X151280952Y-94454819D01*
X151280952Y-94454819D02*
X151185714Y-94597676D01*
X151185714Y-94597676D02*
X151090476Y-94692914D01*
X151090476Y-94692914D02*
X150995238Y-94740533D01*
D11*
%TO.C,U1*%
X143390000Y-85665000D02*
X143390000Y-85430000D01*
X143390000Y-88410000D02*
X143390000Y-87935000D01*
X143865000Y-85190000D02*
X143690000Y-85190000D01*
X143865000Y-88410000D02*
X143390000Y-88410000D01*
X146135000Y-85190000D02*
X146610000Y-85190000D01*
X146135000Y-88410000D02*
X146610000Y-88410000D01*
X146610000Y-85190000D02*
X146610000Y-85665000D01*
X146610000Y-88410000D02*
X146610000Y-87935000D01*
X143390000Y-85190000D02*
X143150000Y-84860000D01*
X143630000Y-84860000D01*
X143390000Y-85190000D01*
G36*
X143390000Y-85190000D02*
G01*
X143150000Y-84860000D01*
X143630000Y-84860000D01*
X143390000Y-85190000D01*
G37*
%TO.C,D1*%
X147360000Y-81550000D02*
X143350000Y-81550000D01*
X147360000Y-83550000D02*
X143350000Y-83550000D01*
X147360000Y-83550000D02*
X147360000Y-81550000D01*
%TO.C,C1*%
X145107836Y-83840000D02*
X144892164Y-83840000D01*
X145107836Y-84560000D02*
X144892164Y-84560000D01*
%TO.C,J1*%
X140390000Y-94415000D02*
X141440000Y-94415000D01*
X140390000Y-96915000D02*
X140390000Y-94415000D01*
X141440000Y-94415000D02*
X141440000Y-93425000D01*
X141560000Y-98885000D02*
X148440000Y-98885000D01*
X149610000Y-94415000D02*
X148560000Y-94415000D01*
X149610000Y-96915000D02*
X149610000Y-94415000D01*
%TD*%
%LPC*%
D12*
%TO.C,U1*%
X143537500Y-86050000D03*
X143537500Y-86550000D03*
X143537500Y-87050000D03*
X143537500Y-87550000D03*
D13*
X144250000Y-88262500D03*
X144750000Y-88262500D03*
X145250000Y-88262500D03*
X145750000Y-88262500D03*
D12*
X146462500Y-87550000D03*
X146462500Y-87050000D03*
X146462500Y-86550000D03*
X146462500Y-86050000D03*
D13*
X145750000Y-85337500D03*
X145250000Y-85337500D03*
X144750000Y-85337500D03*
X144250000Y-85337500D03*
D14*
X145000000Y-86800000D03*
%TD*%
D15*
%TO.C,H3*%
X149800000Y-90200000D03*
%TD*%
D16*
%TO.C,D1*%
X146650000Y-82550000D03*
X143350000Y-82550000D03*
%TD*%
D17*
%TO.C,C1*%
X145480000Y-84200000D03*
X144520000Y-84200000D03*
%TD*%
D18*
%TO.C,J1*%
X142000000Y-94200000D03*
X143000000Y-94200000D03*
X144000000Y-94200000D03*
X145000000Y-94200000D03*
X146000000Y-94200000D03*
X147000000Y-94200000D03*
X148000000Y-94200000D03*
D19*
X140700000Y-98075000D03*
X149300000Y-98075000D03*
%TD*%
D15*
%TO.C,H4*%
X140200000Y-90200000D03*
%TD*%
%TO.C,H1*%
X140200000Y-83400000D03*
%TD*%
%TO.C,H2*%
X149800000Y-83400000D03*
%TD*%
%LPD*%
M02*
