%TF.GenerationSoftware,KiCad,Pcbnew,9.0.4*%
%TF.CreationDate,2025-09-14T23:12:39-04:00*%
%TF.ProjectId,rotour_v2,726f746f-7572-45f7-9632-2e6b69636164,20250913A*%
%TF.SameCoordinates,Original*%
%TF.FileFunction,Legend,Bot*%
%TF.FilePolarity,Positive*%
%FSLAX46Y46*%
G04 Gerber Fmt 4.6, Leading zero omitted, Abs format (unit mm)*
G04 Created by KiCad (PCBNEW 9.0.4) date 2025-09-14 23:12:39*
%MOMM*%
%LPD*%
G01*
G04 APERTURE LIST*
G04 Aperture macros list*
%AMRoundRect*
0 Rectangle with rounded corners*
0 $1 Rounding radius*
0 $2 $3 $4 $5 $6 $7 $8 $9 X,Y pos of 4 corners*
0 Add a 4 corners polygon primitive as box body*
4,1,4,$2,$3,$4,$5,$6,$7,$8,$9,$2,$3,0*
0 Add four circle primitives for the rounded corners*
1,1,$1+$1,$2,$3*
1,1,$1+$1,$4,$5*
1,1,$1+$1,$6,$7*
1,1,$1+$1,$8,$9*
0 Add four rect primitives between the rounded corners*
20,1,$1+$1,$2,$3,$4,$5,0*
20,1,$1+$1,$4,$5,$6,$7,0*
20,1,$1+$1,$6,$7,$8,$9,0*
20,1,$1+$1,$8,$9,$2,$3,0*%
G04 Aperture macros list end*
%ADD10C,0.150000*%
%ADD11C,2.200000*%
%ADD12RoundRect,0.250001X1.099999X-1.099999X1.099999X1.099999X-1.099999X1.099999X-1.099999X-1.099999X0*%
%ADD13C,2.700000*%
%ADD14C,0.650000*%
%ADD15O,1.000000X2.100000*%
%ADD16O,1.000000X1.800000*%
%ADD17RoundRect,0.250000X-0.750000X0.600000X-0.750000X-0.600000X0.750000X-0.600000X0.750000X0.600000X0*%
%ADD18O,2.000000X1.700000*%
%ADD19R,1.700000X1.700000*%
%ADD20O,1.700000X1.700000*%
G04 APERTURE END LIST*
D10*
X162004819Y-100330951D02*
X162719104Y-100330951D01*
X162719104Y-100330951D02*
X162861961Y-100283332D01*
X162861961Y-100283332D02*
X162957200Y-100188094D01*
X162957200Y-100188094D02*
X163004819Y-100045237D01*
X163004819Y-100045237D02*
X163004819Y-99949999D01*
X163004819Y-101283332D02*
X163004819Y-100807142D01*
X163004819Y-100807142D02*
X162004819Y-100807142D01*
X162909580Y-102188094D02*
X162957200Y-102140475D01*
X162957200Y-102140475D02*
X163004819Y-101997618D01*
X163004819Y-101997618D02*
X163004819Y-101902380D01*
X163004819Y-101902380D02*
X162957200Y-101759523D01*
X162957200Y-101759523D02*
X162861961Y-101664285D01*
X162861961Y-101664285D02*
X162766723Y-101616666D01*
X162766723Y-101616666D02*
X162576247Y-101569047D01*
X162576247Y-101569047D02*
X162433390Y-101569047D01*
X162433390Y-101569047D02*
X162242914Y-101616666D01*
X162242914Y-101616666D02*
X162147676Y-101664285D01*
X162147676Y-101664285D02*
X162052438Y-101759523D01*
X162052438Y-101759523D02*
X162004819Y-101902380D01*
X162004819Y-101902380D02*
X162004819Y-101997618D01*
X162004819Y-101997618D02*
X162052438Y-102140475D01*
X162052438Y-102140475D02*
X162100057Y-102188094D01*
X162004819Y-102902380D02*
X162719104Y-102902380D01*
X162719104Y-102902380D02*
X162861961Y-102854761D01*
X162861961Y-102854761D02*
X162957200Y-102759523D01*
X162957200Y-102759523D02*
X163004819Y-102616666D01*
X163004819Y-102616666D02*
X163004819Y-102521428D01*
X163004819Y-103854761D02*
X163004819Y-103378571D01*
X163004819Y-103378571D02*
X162004819Y-103378571D01*
X162909580Y-104759523D02*
X162957200Y-104711904D01*
X162957200Y-104711904D02*
X163004819Y-104569047D01*
X163004819Y-104569047D02*
X163004819Y-104473809D01*
X163004819Y-104473809D02*
X162957200Y-104330952D01*
X162957200Y-104330952D02*
X162861961Y-104235714D01*
X162861961Y-104235714D02*
X162766723Y-104188095D01*
X162766723Y-104188095D02*
X162576247Y-104140476D01*
X162576247Y-104140476D02*
X162433390Y-104140476D01*
X162433390Y-104140476D02*
X162242914Y-104188095D01*
X162242914Y-104188095D02*
X162147676Y-104235714D01*
X162147676Y-104235714D02*
X162052438Y-104330952D01*
X162052438Y-104330952D02*
X162004819Y-104473809D01*
X162004819Y-104473809D02*
X162004819Y-104569047D01*
X162004819Y-104569047D02*
X162052438Y-104711904D01*
X162052438Y-104711904D02*
X162100057Y-104759523D01*
X162004819Y-105473809D02*
X162719104Y-105473809D01*
X162719104Y-105473809D02*
X162861961Y-105426190D01*
X162861961Y-105426190D02*
X162957200Y-105330952D01*
X162957200Y-105330952D02*
X163004819Y-105188095D01*
X163004819Y-105188095D02*
X163004819Y-105092857D01*
X163004819Y-106426190D02*
X163004819Y-105950000D01*
X163004819Y-105950000D02*
X162004819Y-105950000D01*
X162909580Y-107330952D02*
X162957200Y-107283333D01*
X162957200Y-107283333D02*
X163004819Y-107140476D01*
X163004819Y-107140476D02*
X163004819Y-107045238D01*
X163004819Y-107045238D02*
X162957200Y-106902381D01*
X162957200Y-106902381D02*
X162861961Y-106807143D01*
X162861961Y-106807143D02*
X162766723Y-106759524D01*
X162766723Y-106759524D02*
X162576247Y-106711905D01*
X162576247Y-106711905D02*
X162433390Y-106711905D01*
X162433390Y-106711905D02*
X162242914Y-106759524D01*
X162242914Y-106759524D02*
X162147676Y-106807143D01*
X162147676Y-106807143D02*
X162052438Y-106902381D01*
X162052438Y-106902381D02*
X162004819Y-107045238D01*
X162004819Y-107045238D02*
X162004819Y-107140476D01*
X162004819Y-107140476D02*
X162052438Y-107283333D01*
X162052438Y-107283333D02*
X162100057Y-107330952D01*
X162004819Y-108045238D02*
X162719104Y-108045238D01*
X162719104Y-108045238D02*
X162861961Y-107997619D01*
X162861961Y-107997619D02*
X162957200Y-107902381D01*
X162957200Y-107902381D02*
X163004819Y-107759524D01*
X163004819Y-107759524D02*
X163004819Y-107664286D01*
X163004819Y-108997619D02*
X163004819Y-108521429D01*
X163004819Y-108521429D02*
X162004819Y-108521429D01*
X162909580Y-109902381D02*
X162957200Y-109854762D01*
X162957200Y-109854762D02*
X163004819Y-109711905D01*
X163004819Y-109711905D02*
X163004819Y-109616667D01*
X163004819Y-109616667D02*
X162957200Y-109473810D01*
X162957200Y-109473810D02*
X162861961Y-109378572D01*
X162861961Y-109378572D02*
X162766723Y-109330953D01*
X162766723Y-109330953D02*
X162576247Y-109283334D01*
X162576247Y-109283334D02*
X162433390Y-109283334D01*
X162433390Y-109283334D02*
X162242914Y-109330953D01*
X162242914Y-109330953D02*
X162147676Y-109378572D01*
X162147676Y-109378572D02*
X162052438Y-109473810D01*
X162052438Y-109473810D02*
X162004819Y-109616667D01*
X162004819Y-109616667D02*
X162004819Y-109711905D01*
X162004819Y-109711905D02*
X162052438Y-109854762D01*
X162052438Y-109854762D02*
X162100057Y-109902381D01*
%LPC*%
D11*
%TO.C,H3*%
X163600000Y-128400000D03*
%TD*%
%TO.C,H1*%
X205000000Y-97200000D03*
%TD*%
D12*
%TO.C,J5*%
X199650000Y-106257500D03*
D13*
X199650000Y-102297500D03*
%TD*%
D14*
%TO.C,J7*%
X183790000Y-100955000D03*
X178010000Y-100955000D03*
D15*
X185220000Y-101455000D03*
D16*
X185220000Y-97275000D03*
D15*
X176580000Y-101455000D03*
D16*
X176580000Y-97275000D03*
%TD*%
D17*
%TO.C,J2*%
X202105000Y-111890000D03*
D18*
X202105000Y-114390000D03*
%TD*%
D11*
%TO.C,H4*%
X163600000Y-97200000D03*
%TD*%
D17*
%TO.C,J6*%
X202115000Y-120370000D03*
D18*
X202115000Y-122870000D03*
%TD*%
D19*
%TO.C,J4*%
X175805000Y-128900000D03*
D20*
X173265000Y-128900000D03*
X170725000Y-128900000D03*
%TD*%
D11*
%TO.C,H2*%
X205000000Y-128400000D03*
%TD*%
%LPD*%
M02*
