%TF.GenerationSoftware,KiCad,Pcbnew,9.0.4*%
%TF.CreationDate,2025-09-14T23:12:39-04:00*%
%TF.ProjectId,rotour_v2,726f746f-7572-45f7-9632-2e6b69636164,20250913A*%
%TF.SameCoordinates,Original*%
%TF.FileFunction,Copper,L2,Bot*%
%TF.FilePolarity,Positive*%
%FSLAX46Y46*%
G04 Gerber Fmt 4.6, Leading zero omitted, Abs format (unit mm)*
G04 Created by KiCad (PCBNEW 9.0.4) date 2025-09-14 23:12:39*
%MOMM*%
%LPD*%
G01*
G04 APERTURE LIST*
G04 Aperture macros list*
%AMRoundRect*
0 Rectangle with rounded corners*
0 $1 Rounding radius*
0 $2 $3 $4 $5 $6 $7 $8 $9 X,Y pos of 4 corners*
0 Add a 4 corners polygon primitive as box body*
4,1,4,$2,$3,$4,$5,$6,$7,$8,$9,$2,$3,0*
0 Add four circle primitives for the rounded corners*
1,1,$1+$1,$2,$3*
1,1,$1+$1,$4,$5*
1,1,$1+$1,$6,$7*
1,1,$1+$1,$8,$9*
0 Add four rect primitives between the rounded corners*
20,1,$1+$1,$2,$3,$4,$5,0*
20,1,$1+$1,$4,$5,$6,$7,0*
20,1,$1+$1,$6,$7,$8,$9,0*
20,1,$1+$1,$8,$9,$2,$3,0*%
G04 Aperture macros list end*
%TA.AperFunction,HeatsinkPad*%
%ADD10C,0.500000*%
%TD*%
%TA.AperFunction,HeatsinkPad*%
%ADD11R,3.400000X3.400000*%
%TD*%
%TA.AperFunction,ComponentPad*%
%ADD12RoundRect,0.250001X1.099999X-1.099999X1.099999X1.099999X-1.099999X1.099999X-1.099999X-1.099999X0*%
%TD*%
%TA.AperFunction,ComponentPad*%
%ADD13C,2.700000*%
%TD*%
%TA.AperFunction,HeatsinkPad*%
%ADD14O,1.000000X2.100000*%
%TD*%
%TA.AperFunction,HeatsinkPad*%
%ADD15O,1.000000X1.800000*%
%TD*%
%TA.AperFunction,ComponentPad*%
%ADD16RoundRect,0.250000X-0.750000X0.600000X-0.750000X-0.600000X0.750000X-0.600000X0.750000X0.600000X0*%
%TD*%
%TA.AperFunction,ComponentPad*%
%ADD17O,2.000000X1.700000*%
%TD*%
%TA.AperFunction,ComponentPad*%
%ADD18R,1.700000X1.700000*%
%TD*%
%TA.AperFunction,ComponentPad*%
%ADD19O,1.700000X1.700000*%
%TD*%
%TA.AperFunction,ViaPad*%
%ADD20C,0.600000*%
%TD*%
%TA.AperFunction,Conductor*%
%ADD21C,0.600000*%
%TD*%
%TA.AperFunction,Conductor*%
%ADD22C,0.150000*%
%TD*%
G04 APERTURE END LIST*
D10*
%TO.P,U3,61,GND*%
%TO.N,GND*%
X180550000Y-114550000D03*
X180550000Y-116000000D03*
X180550000Y-117450000D03*
X182000000Y-114550000D03*
X182000000Y-116000000D03*
D11*
X182000000Y-116000000D03*
D10*
X182000000Y-117450000D03*
X183450000Y-114550000D03*
X183450000Y-116000000D03*
X183450000Y-117450000D03*
%TD*%
D12*
%TO.P,J5,1,Pin_1*%
%TO.N,+BATT*%
X199650000Y-106257500D03*
D13*
%TO.P,J5,2,Pin_2*%
%TO.N,GND*%
X199650000Y-102297500D03*
%TD*%
D14*
%TO.P,J7,S1,SHIELD*%
%TO.N,GND*%
X185220000Y-101455000D03*
D15*
X185220000Y-97275000D03*
D14*
X176580000Y-101455000D03*
D15*
X176580000Y-97275000D03*
%TD*%
D16*
%TO.P,J2,1,Pin_1*%
%TO.N,/L_MOT_OUT1*%
X202105000Y-111890000D03*
D17*
%TO.P,J2,2,Pin_2*%
%TO.N,/L_MOT_OUT2*%
X202105000Y-114390000D03*
%TD*%
D16*
%TO.P,J6,1,Pin_1*%
%TO.N,/R_MOT_OUT1*%
X202115000Y-120370000D03*
D17*
%TO.P,J6,2,Pin_2*%
%TO.N,/R_MOT_OUT2*%
X202115000Y-122870000D03*
%TD*%
D18*
%TO.P,J4,1,Pin_1*%
%TO.N,/SERVO*%
X175805000Y-128900000D03*
D19*
%TO.P,J4,2,Pin_2*%
%TO.N,+3V3*%
X173265000Y-128900000D03*
%TO.P,J4,3,Pin_3*%
%TO.N,GND*%
X170725000Y-128900000D03*
%TD*%
D20*
%TO.N,GND*%
X191500000Y-100750000D03*
X195125000Y-114350000D03*
X194475000Y-123475000D03*
X171650000Y-104700000D03*
X196500000Y-122700000D03*
X184800000Y-125000000D03*
X185850000Y-112150000D03*
X184800000Y-127500000D03*
X177700000Y-104550000D03*
X185100000Y-110500000D03*
X185100000Y-111100000D03*
X191450000Y-119450000D03*
X183700000Y-123350000D03*
X179400000Y-125000000D03*
X190290000Y-115400000D03*
X184800000Y-130300000D03*
X179140000Y-108120000D03*
X193050000Y-101300000D03*
X183950000Y-104700000D03*
X194800000Y-124025000D03*
X174300000Y-112725000D03*
X193350000Y-99700000D03*
X166450000Y-116650000D03*
X194800000Y-114900000D03*
X180450000Y-105300000D03*
X194475000Y-114350000D03*
X179400000Y-126250000D03*
X179400000Y-128775000D03*
X189050000Y-119900000D03*
X193050000Y-101900000D03*
X179400000Y-127500000D03*
X190200000Y-126175000D03*
X191400000Y-109450000D03*
X194200000Y-100850000D03*
X189425000Y-112500000D03*
X169000000Y-112650000D03*
X169900000Y-127200000D03*
X195125000Y-123475000D03*
X190700000Y-102250000D03*
X191450000Y-110500000D03*
X197600000Y-122700000D03*
X191950000Y-119000000D03*
X169000000Y-114650000D03*
X172220000Y-123420000D03*
X165950000Y-122950000D03*
X175475000Y-122475000D03*
X166300000Y-100600000D03*
X166450000Y-114650000D03*
X177879077Y-123931720D03*
X184800000Y-126250000D03*
X188575000Y-112450000D03*
X165075000Y-100600000D03*
X197585000Y-113600000D03*
X176950000Y-102900000D03*
X193350000Y-100300000D03*
X194800000Y-100850000D03*
X181950000Y-130300000D03*
X191500000Y-118500000D03*
X169000000Y-116650000D03*
X184800000Y-128775000D03*
X170650000Y-127200000D03*
X196525000Y-113600000D03*
X180200000Y-123300000D03*
X184650000Y-102950000D03*
X174300000Y-117400000D03*
X191875000Y-109925000D03*
X190290000Y-116400000D03*
X166450000Y-112650000D03*
X174300000Y-115000000D03*
X190300000Y-108400000D03*
X179400000Y-130300000D03*
X188575000Y-113200000D03*
%TO.N,+3V3*%
X191875000Y-121975000D03*
X192600000Y-113650000D03*
X190725000Y-112900000D03*
X192100000Y-123350000D03*
%TO.N,+1V1*%
X182200500Y-121800000D03*
X179825000Y-115200000D03*
X176800500Y-115000000D03*
X182200000Y-118175000D03*
X182500500Y-110200000D03*
X182488270Y-113850500D03*
X184150000Y-115600000D03*
X187800500Y-115600000D03*
X182500000Y-110800000D03*
%TO.N,/R_MOT_VISEN*%
X190000000Y-119150000D03*
X187890000Y-114800000D03*
%TO.N,/L_ENCODER_CS*%
X168400000Y-111650000D03*
X173277500Y-112502500D03*
%TO.N,/L_MOT_IN2*%
X192575000Y-111400000D03*
X192025000Y-113000000D03*
%TO.N,/GYRO_MOSI*%
X177850000Y-119500000D03*
X178975000Y-120275000D03*
%TD*%
D21*
%TO.N,GND*%
X172220000Y-123420000D02*
X172220000Y-123750000D01*
D22*
%TO.N,+3V3*%
X191875000Y-123125000D02*
X192100000Y-123350000D01*
X191475000Y-113650000D02*
X190725000Y-112900000D01*
X192600000Y-113650000D02*
X191475000Y-113650000D01*
X191875000Y-121975000D02*
X191875000Y-123125000D01*
D21*
%TO.N,+1V1*%
X187800500Y-115600000D02*
X184150000Y-115600000D01*
X179825000Y-115200000D02*
X177000500Y-115200000D01*
X182200500Y-118175500D02*
X182200500Y-121800000D01*
X177000500Y-115200000D02*
X176800500Y-115000000D01*
X182488270Y-113850500D02*
X182500500Y-113838270D01*
X182500500Y-113838270D02*
X182500500Y-110200000D01*
X182200000Y-118175000D02*
X182200500Y-118175500D01*
D22*
%TO.N,/R_MOT_VISEN*%
X189100000Y-115000000D02*
X188900000Y-114800000D01*
X189100000Y-118250000D02*
X190000000Y-119150000D01*
X188900000Y-114800000D02*
X187890000Y-114800000D01*
X189100000Y-115000000D02*
X189100000Y-118250000D01*
%TO.N,/L_ENCODER_CS*%
X169000000Y-111650000D02*
X168400000Y-111650000D01*
X169500000Y-111150000D02*
X169000000Y-111650000D01*
X171925000Y-111150000D02*
X169500000Y-111150000D01*
X173277500Y-112502500D02*
X171925000Y-111150000D01*
%TO.N,/L_MOT_IN2*%
X192025000Y-111950000D02*
X192025000Y-113000000D01*
X192575000Y-111400000D02*
X192025000Y-111950000D01*
%TO.N,/GYRO_MOSI*%
X178625000Y-120275000D02*
X177850000Y-119500000D01*
X178975000Y-120275000D02*
X178625000Y-120275000D01*
%TD*%
%TA.AperFunction,Conductor*%
%TO.N,GND*%
G36*
X203866816Y-94919407D02*
G01*
X203902780Y-94968907D01*
X203902780Y-95030093D01*
X203866816Y-95079593D01*
X203851580Y-95088696D01*
X203837010Y-95095712D01*
X203837005Y-95095714D01*
X203608710Y-95239162D01*
X203397916Y-95407265D01*
X203207265Y-95597916D01*
X203039162Y-95808710D01*
X202895714Y-96037005D01*
X202895708Y-96037017D01*
X202778733Y-96279919D01*
X202778732Y-96279922D01*
X202689684Y-96534405D01*
X202629688Y-96797265D01*
X202629687Y-96797271D01*
X202599500Y-97065174D01*
X202599500Y-97334825D01*
X202629687Y-97602728D01*
X202629688Y-97602734D01*
X202689684Y-97865594D01*
X202778732Y-98120077D01*
X202778733Y-98120080D01*
X202895708Y-98362982D01*
X202895714Y-98362994D01*
X203039162Y-98591289D01*
X203207266Y-98802085D01*
X203397915Y-98992734D01*
X203608711Y-99160838D01*
X203837003Y-99304284D01*
X203837005Y-99304285D01*
X203837017Y-99304291D01*
X204049556Y-99406644D01*
X204079921Y-99421267D01*
X204198719Y-99462836D01*
X204334405Y-99510315D01*
X204334408Y-99510315D01*
X204334409Y-99510316D01*
X204597268Y-99570312D01*
X204669515Y-99578452D01*
X204865174Y-99600499D01*
X204865190Y-99600499D01*
X204865191Y-99600500D01*
X204865192Y-99600500D01*
X205134808Y-99600500D01*
X205134809Y-99600500D01*
X205134810Y-99600499D01*
X205134825Y-99600499D01*
X205306402Y-99581165D01*
X205402732Y-99570312D01*
X205665591Y-99510316D01*
X205920079Y-99421267D01*
X206162997Y-99304284D01*
X206391289Y-99160838D01*
X206602085Y-98992734D01*
X206792734Y-98802085D01*
X206960838Y-98591289D01*
X207104284Y-98362997D01*
X207111303Y-98348420D01*
X207153586Y-98304196D01*
X207213788Y-98293270D01*
X207268914Y-98319816D01*
X207297909Y-98373696D01*
X207299500Y-98391374D01*
X207299500Y-127208625D01*
X207280593Y-127266816D01*
X207231093Y-127302780D01*
X207169907Y-127302780D01*
X207120407Y-127266816D01*
X207111304Y-127251580D01*
X207109869Y-127248600D01*
X207104284Y-127237003D01*
X206960838Y-127008711D01*
X206792734Y-126797915D01*
X206602085Y-126607266D01*
X206391289Y-126439162D01*
X206162997Y-126295716D01*
X206162994Y-126295714D01*
X206162982Y-126295708D01*
X205920080Y-126178733D01*
X205920077Y-126178732D01*
X205665594Y-126089684D01*
X205402734Y-126029688D01*
X205402728Y-126029687D01*
X205134825Y-125999500D01*
X205134809Y-125999500D01*
X204865191Y-125999500D01*
X204865174Y-125999500D01*
X204597271Y-126029687D01*
X204597265Y-126029688D01*
X204334405Y-126089684D01*
X204079922Y-126178732D01*
X204079919Y-126178733D01*
X203837017Y-126295708D01*
X203837005Y-126295714D01*
X203608710Y-126439162D01*
X203397916Y-126607265D01*
X203207265Y-126797916D01*
X203039162Y-127008710D01*
X202895714Y-127237005D01*
X202895708Y-127237017D01*
X202778733Y-127479919D01*
X202778732Y-127479922D01*
X202689684Y-127734405D01*
X202629688Y-127997265D01*
X202629687Y-127997271D01*
X202599500Y-128265174D01*
X202599500Y-128534825D01*
X202629687Y-128802728D01*
X202629688Y-128802734D01*
X202689684Y-129065594D01*
X202778732Y-129320077D01*
X202778733Y-129320080D01*
X202895708Y-129562982D01*
X202895714Y-129562994D01*
X202991840Y-129715977D01*
X203039162Y-129791289D01*
X203207266Y-130002085D01*
X203397915Y-130192734D01*
X203608711Y-130360838D01*
X203837003Y-130504284D01*
X203848600Y-130509869D01*
X203851580Y-130511304D01*
X203895804Y-130553588D01*
X203906729Y-130613790D01*
X203880181Y-130668916D01*
X203826301Y-130697909D01*
X203808625Y-130699500D01*
X164791375Y-130699500D01*
X164733184Y-130680593D01*
X164697220Y-130631093D01*
X164697220Y-130569907D01*
X164733184Y-130520407D01*
X164748420Y-130511304D01*
X164749885Y-130510598D01*
X164762997Y-130504284D01*
X164991289Y-130360838D01*
X165202085Y-130192734D01*
X165392734Y-130002085D01*
X165560838Y-129791289D01*
X165704284Y-129562997D01*
X165821267Y-129320079D01*
X165910316Y-129065591D01*
X165970312Y-128802732D01*
X165971011Y-128796532D01*
X172214500Y-128796532D01*
X172214500Y-129003467D01*
X172254869Y-129206418D01*
X172334058Y-129397597D01*
X172444564Y-129562982D01*
X172449023Y-129569655D01*
X172595345Y-129715977D01*
X172767402Y-129830941D01*
X172958580Y-129910130D01*
X173161535Y-129950500D01*
X173161536Y-129950500D01*
X173368464Y-129950500D01*
X173368465Y-129950500D01*
X173571420Y-129910130D01*
X173762598Y-129830941D01*
X173934655Y-129715977D01*
X174080977Y-129569655D01*
X174195941Y-129397598D01*
X174275130Y-129206420D01*
X174315500Y-129003465D01*
X174315500Y-128796535D01*
X174275130Y-128593580D01*
X174195941Y-128402402D01*
X174080977Y-128230345D01*
X173934655Y-128084023D01*
X173854182Y-128030253D01*
X174754500Y-128030253D01*
X174754500Y-129769746D01*
X174754501Y-129769758D01*
X174766132Y-129828227D01*
X174766134Y-129828233D01*
X174810445Y-129894548D01*
X174810448Y-129894552D01*
X174876769Y-129938867D01*
X174921231Y-129947711D01*
X174935241Y-129950498D01*
X174935246Y-129950498D01*
X174935252Y-129950500D01*
X174935253Y-129950500D01*
X176674747Y-129950500D01*
X176674748Y-129950500D01*
X176733231Y-129938867D01*
X176799552Y-129894552D01*
X176843867Y-129828231D01*
X176855500Y-129769748D01*
X176855500Y-128030252D01*
X176843867Y-127971769D01*
X176799552Y-127905448D01*
X176799548Y-127905445D01*
X176733233Y-127861134D01*
X176733231Y-127861133D01*
X176733228Y-127861132D01*
X176733227Y-127861132D01*
X176674758Y-127849501D01*
X176674748Y-127849500D01*
X174935252Y-127849500D01*
X174935251Y-127849500D01*
X174935241Y-127849501D01*
X174876772Y-127861132D01*
X174876766Y-127861134D01*
X174810451Y-127905445D01*
X174810445Y-127905451D01*
X174766134Y-127971766D01*
X174766132Y-127971772D01*
X174754501Y-128030241D01*
X174754500Y-128030253D01*
X173854182Y-128030253D01*
X173762597Y-127969058D01*
X173571418Y-127889869D01*
X173368467Y-127849500D01*
X173368465Y-127849500D01*
X173161535Y-127849500D01*
X173161532Y-127849500D01*
X172958581Y-127889869D01*
X172767402Y-127969058D01*
X172595348Y-128084020D01*
X172449020Y-128230348D01*
X172334058Y-128402402D01*
X172254869Y-128593581D01*
X172214500Y-128796532D01*
X165971011Y-128796532D01*
X165993878Y-128593581D01*
X166000499Y-128534825D01*
X166000500Y-128534808D01*
X166000500Y-128265191D01*
X166000499Y-128265174D01*
X165978452Y-128069515D01*
X165970312Y-127997268D01*
X165910316Y-127734409D01*
X165821267Y-127479921D01*
X165737862Y-127306729D01*
X165704291Y-127237017D01*
X165704285Y-127237005D01*
X165560837Y-127008710D01*
X165392734Y-126797915D01*
X165202085Y-126607266D01*
X164991289Y-126439162D01*
X164762997Y-126295716D01*
X164762994Y-126295714D01*
X164762982Y-126295708D01*
X164520080Y-126178733D01*
X164520077Y-126178732D01*
X164265594Y-126089684D01*
X164002734Y-126029688D01*
X164002728Y-126029687D01*
X163734825Y-125999500D01*
X163734809Y-125999500D01*
X163465191Y-125999500D01*
X163465174Y-125999500D01*
X163197271Y-126029687D01*
X163197265Y-126029688D01*
X162934405Y-126089684D01*
X162679922Y-126178732D01*
X162679919Y-126178733D01*
X162437017Y-126295708D01*
X162437005Y-126295714D01*
X162208710Y-126439162D01*
X161997916Y-126607265D01*
X161807265Y-126797916D01*
X161639162Y-127008710D01*
X161495714Y-127237005D01*
X161495712Y-127237010D01*
X161488696Y-127251580D01*
X161446412Y-127295804D01*
X161386210Y-127306729D01*
X161331084Y-127280181D01*
X161302091Y-127226301D01*
X161300500Y-127208625D01*
X161300500Y-123750000D01*
X171300000Y-123750000D01*
X171300001Y-123750000D01*
X174099999Y-123750000D01*
X174100000Y-123750000D01*
X174100000Y-120950000D01*
X171300000Y-120950000D01*
X171300000Y-123750000D01*
X161300500Y-123750000D01*
X161300500Y-119434108D01*
X177349500Y-119434108D01*
X177349500Y-119565892D01*
X177379579Y-119678151D01*
X177383609Y-119693190D01*
X177449496Y-119807309D01*
X177449498Y-119807311D01*
X177449500Y-119807314D01*
X177542686Y-119900500D01*
X177542688Y-119900501D01*
X177542690Y-119900503D01*
X177656810Y-119966390D01*
X177656808Y-119966390D01*
X177656812Y-119966391D01*
X177656814Y-119966392D01*
X177784108Y-120000500D01*
X177784110Y-120000500D01*
X177919876Y-120000500D01*
X177978067Y-120019407D01*
X177989879Y-120029496D01*
X178301274Y-120340890D01*
X178468942Y-120508558D01*
X178520662Y-120529980D01*
X178567186Y-120569715D01*
X178568512Y-120571943D01*
X178574500Y-120582314D01*
X178667686Y-120675500D01*
X178667688Y-120675501D01*
X178667690Y-120675503D01*
X178781810Y-120741390D01*
X178781808Y-120741390D01*
X178781812Y-120741391D01*
X178781814Y-120741392D01*
X178909108Y-120775500D01*
X178909110Y-120775500D01*
X179040890Y-120775500D01*
X179040892Y-120775500D01*
X179168186Y-120741392D01*
X179168188Y-120741390D01*
X179168190Y-120741390D01*
X179282309Y-120675503D01*
X179282309Y-120675502D01*
X179282314Y-120675500D01*
X179375500Y-120582314D01*
X179441392Y-120468186D01*
X179475500Y-120340892D01*
X179475500Y-120209108D01*
X179441392Y-120081814D01*
X179441390Y-120081811D01*
X179441390Y-120081809D01*
X179375503Y-119967690D01*
X179375501Y-119967688D01*
X179375500Y-119967686D01*
X179282314Y-119874500D01*
X179282311Y-119874498D01*
X179282309Y-119874496D01*
X179168189Y-119808609D01*
X179168191Y-119808609D01*
X179118799Y-119795375D01*
X179040892Y-119774500D01*
X178909108Y-119774500D01*
X178831200Y-119795375D01*
X178781809Y-119808609D01*
X178699511Y-119856125D01*
X178639663Y-119868847D01*
X178583767Y-119843960D01*
X178580007Y-119840392D01*
X178379496Y-119639880D01*
X178351719Y-119585364D01*
X178350500Y-119569877D01*
X178350500Y-119434109D01*
X178332574Y-119367207D01*
X178316392Y-119306814D01*
X178316390Y-119306811D01*
X178316390Y-119306809D01*
X178250503Y-119192690D01*
X178250501Y-119192688D01*
X178250500Y-119192686D01*
X178157314Y-119099500D01*
X178157311Y-119099498D01*
X178157309Y-119099496D01*
X178043189Y-119033609D01*
X178043191Y-119033609D01*
X177993799Y-119020375D01*
X177915892Y-118999500D01*
X177784108Y-118999500D01*
X177706200Y-119020375D01*
X177656809Y-119033609D01*
X177542690Y-119099496D01*
X177449496Y-119192690D01*
X177383609Y-119306809D01*
X177383608Y-119306814D01*
X177349500Y-119434108D01*
X161300500Y-119434108D01*
X161300500Y-118109108D01*
X181699500Y-118109108D01*
X181699500Y-118240892D01*
X181699971Y-118242651D01*
X181699999Y-118250845D01*
X181699981Y-118250898D01*
X181700000Y-118251178D01*
X181700000Y-121865892D01*
X181711580Y-121909108D01*
X181734109Y-121993190D01*
X181799996Y-122107309D01*
X181799998Y-122107311D01*
X181800000Y-122107314D01*
X181893186Y-122200500D01*
X181893188Y-122200501D01*
X181893190Y-122200503D01*
X182007310Y-122266390D01*
X182007308Y-122266390D01*
X182007312Y-122266391D01*
X182007314Y-122266392D01*
X182134608Y-122300500D01*
X182134610Y-122300500D01*
X182266390Y-122300500D01*
X182266392Y-122300500D01*
X182393686Y-122266392D01*
X182393688Y-122266390D01*
X182393690Y-122266390D01*
X182507809Y-122200503D01*
X182507809Y-122200502D01*
X182507814Y-122200500D01*
X182601000Y-122107314D01*
X182631768Y-122054023D01*
X182666890Y-121993190D01*
X182666890Y-121993188D01*
X182666892Y-121993186D01*
X182689420Y-121909108D01*
X191374500Y-121909108D01*
X191374500Y-122040892D01*
X191392296Y-122107309D01*
X191408609Y-122168190D01*
X191474496Y-122282309D01*
X191474498Y-122282311D01*
X191474500Y-122282314D01*
X191567686Y-122375500D01*
X191567688Y-122375501D01*
X191570504Y-122378317D01*
X191598281Y-122432834D01*
X191599500Y-122448321D01*
X191599500Y-123179800D01*
X191603610Y-123189723D01*
X191608411Y-123250720D01*
X191607773Y-123253230D01*
X191599500Y-123284106D01*
X191599500Y-123284108D01*
X191599500Y-123415892D01*
X191629579Y-123528151D01*
X191633609Y-123543190D01*
X191699496Y-123657309D01*
X191699498Y-123657311D01*
X191699500Y-123657314D01*
X191792686Y-123750500D01*
X191792688Y-123750501D01*
X191792690Y-123750503D01*
X191906810Y-123816390D01*
X191906808Y-123816390D01*
X191906812Y-123816391D01*
X191906814Y-123816392D01*
X192034108Y-123850500D01*
X192034110Y-123850500D01*
X192165890Y-123850500D01*
X192165892Y-123850500D01*
X192293186Y-123816392D01*
X192293188Y-123816390D01*
X192293190Y-123816390D01*
X192407309Y-123750503D01*
X192407309Y-123750502D01*
X192407314Y-123750500D01*
X192500500Y-123657314D01*
X192566392Y-123543186D01*
X192600500Y-123415892D01*
X192600500Y-123284108D01*
X192566392Y-123156814D01*
X192566390Y-123156811D01*
X192566390Y-123156809D01*
X192500503Y-123042690D01*
X192500501Y-123042688D01*
X192500500Y-123042686D01*
X192407314Y-122949500D01*
X192407311Y-122949498D01*
X192407309Y-122949496D01*
X192293189Y-122883609D01*
X192293190Y-122883609D01*
X192223877Y-122865037D01*
X192221610Y-122863565D01*
X192218907Y-122863565D01*
X192196150Y-122847031D01*
X192172562Y-122831713D01*
X192171593Y-122829189D01*
X192169407Y-122827601D01*
X192160714Y-122800847D01*
X192159743Y-122798317D01*
X192155345Y-122792264D01*
X192153887Y-122783062D01*
X192150636Y-122774591D01*
X192150500Y-122769410D01*
X192150500Y-122766532D01*
X200914500Y-122766532D01*
X200914500Y-122973467D01*
X200954869Y-123176418D01*
X201034058Y-123367597D01*
X201149020Y-123539651D01*
X201149023Y-123539655D01*
X201295345Y-123685977D01*
X201467402Y-123800941D01*
X201658580Y-123880130D01*
X201861535Y-123920500D01*
X201861536Y-123920500D01*
X202368464Y-123920500D01*
X202368465Y-123920500D01*
X202571420Y-123880130D01*
X202762598Y-123800941D01*
X202934655Y-123685977D01*
X203080977Y-123539655D01*
X203195941Y-123367598D01*
X203275130Y-123176420D01*
X203315500Y-122973465D01*
X203315500Y-122766535D01*
X203275130Y-122563580D01*
X203195941Y-122372402D01*
X203080977Y-122200345D01*
X202934655Y-122054023D01*
X202915000Y-122040890D01*
X202762597Y-121939058D01*
X202571418Y-121859869D01*
X202368467Y-121819500D01*
X202368465Y-121819500D01*
X201861535Y-121819500D01*
X201861532Y-121819500D01*
X201658581Y-121859869D01*
X201467402Y-121939058D01*
X201295348Y-122054020D01*
X201149020Y-122200348D01*
X201034058Y-122372402D01*
X200954869Y-122563581D01*
X200914500Y-122766532D01*
X192150500Y-122766532D01*
X192150500Y-122448321D01*
X192169407Y-122390130D01*
X192179496Y-122378317D01*
X192182311Y-122375501D01*
X192182314Y-122375500D01*
X192275500Y-122282314D01*
X192322734Y-122200503D01*
X192341390Y-122168190D01*
X192341390Y-122168188D01*
X192341392Y-122168186D01*
X192375500Y-122040892D01*
X192375500Y-121909108D01*
X192341392Y-121781814D01*
X192341390Y-121781811D01*
X192341390Y-121781809D01*
X192275503Y-121667690D01*
X192275501Y-121667688D01*
X192275500Y-121667686D01*
X192182314Y-121574500D01*
X192182311Y-121574498D01*
X192182309Y-121574496D01*
X192068189Y-121508609D01*
X192068191Y-121508609D01*
X192018799Y-121495375D01*
X191940892Y-121474500D01*
X191809108Y-121474500D01*
X191731200Y-121495375D01*
X191681809Y-121508609D01*
X191567690Y-121574496D01*
X191474496Y-121667690D01*
X191408609Y-121781809D01*
X191408608Y-121781814D01*
X191374500Y-121909108D01*
X182689420Y-121909108D01*
X182701000Y-121865892D01*
X182701000Y-119715725D01*
X200914500Y-119715725D01*
X200914500Y-121024274D01*
X200917353Y-121054694D01*
X200917355Y-121054703D01*
X200962207Y-121182883D01*
X201042845Y-121292144D01*
X201042847Y-121292146D01*
X201042850Y-121292150D01*
X201042853Y-121292152D01*
X201042855Y-121292154D01*
X201152116Y-121372792D01*
X201152117Y-121372792D01*
X201152118Y-121372793D01*
X201280301Y-121417646D01*
X201310725Y-121420499D01*
X201310727Y-121420500D01*
X201310734Y-121420500D01*
X202919273Y-121420500D01*
X202919273Y-121420499D01*
X202949699Y-121417646D01*
X203077882Y-121372793D01*
X203187150Y-121292150D01*
X203267793Y-121182882D01*
X203312646Y-121054699D01*
X203315499Y-121024273D01*
X203315500Y-121024273D01*
X203315500Y-119715727D01*
X203315499Y-119715725D01*
X203312646Y-119685305D01*
X203312646Y-119685301D01*
X203267793Y-119557118D01*
X203187150Y-119447850D01*
X203187146Y-119447847D01*
X203187144Y-119447845D01*
X203077883Y-119367207D01*
X202949703Y-119322355D01*
X202949694Y-119322353D01*
X202919274Y-119319500D01*
X202919266Y-119319500D01*
X201310734Y-119319500D01*
X201310725Y-119319500D01*
X201280305Y-119322353D01*
X201280296Y-119322355D01*
X201152116Y-119367207D01*
X201042855Y-119447845D01*
X201042845Y-119447855D01*
X200962207Y-119557116D01*
X200917355Y-119685296D01*
X200917353Y-119685305D01*
X200914500Y-119715725D01*
X182701000Y-119715725D01*
X182701000Y-118109608D01*
X182696802Y-118093942D01*
X182666892Y-117982314D01*
X182601000Y-117868186D01*
X182507314Y-117774500D01*
X182507311Y-117774498D01*
X182507309Y-117774496D01*
X182393189Y-117708609D01*
X182393191Y-117708609D01*
X182343799Y-117695375D01*
X182265892Y-117674500D01*
X182134108Y-117674500D01*
X182056200Y-117695375D01*
X182006809Y-117708609D01*
X181892690Y-117774496D01*
X181799496Y-117867690D01*
X181733609Y-117981809D01*
X181703564Y-118093942D01*
X181699500Y-118109108D01*
X161300500Y-118109108D01*
X161300500Y-114934108D01*
X176300000Y-114934108D01*
X176300000Y-115065892D01*
X176310344Y-115104496D01*
X176334109Y-115193190D01*
X176399996Y-115307309D01*
X176399998Y-115307311D01*
X176400000Y-115307314D01*
X176693186Y-115600500D01*
X176693188Y-115600501D01*
X176693190Y-115600503D01*
X176807310Y-115666390D01*
X176807308Y-115666390D01*
X176807312Y-115666391D01*
X176807314Y-115666392D01*
X176934608Y-115700500D01*
X176934610Y-115700500D01*
X179890890Y-115700500D01*
X179890892Y-115700500D01*
X180018186Y-115666392D01*
X180018188Y-115666390D01*
X180018190Y-115666390D01*
X180132309Y-115600503D01*
X180132309Y-115600502D01*
X180132314Y-115600500D01*
X180198706Y-115534108D01*
X183649500Y-115534108D01*
X183649500Y-115665892D01*
X183658773Y-115700500D01*
X183683609Y-115793190D01*
X183749496Y-115907309D01*
X183749498Y-115907311D01*
X183749500Y-115907314D01*
X183842686Y-116000500D01*
X183842688Y-116000501D01*
X183842690Y-116000503D01*
X183956810Y-116066390D01*
X183956808Y-116066390D01*
X183956812Y-116066391D01*
X183956814Y-116066392D01*
X184084108Y-116100500D01*
X184084110Y-116100500D01*
X187866390Y-116100500D01*
X187866392Y-116100500D01*
X187993686Y-116066392D01*
X187993688Y-116066390D01*
X187993690Y-116066390D01*
X188107809Y-116000503D01*
X188107809Y-116000502D01*
X188107814Y-116000500D01*
X188201000Y-115907314D01*
X188266892Y-115793186D01*
X188301000Y-115665892D01*
X188301000Y-115534108D01*
X188266892Y-115406814D01*
X188266890Y-115406811D01*
X188266890Y-115406809D01*
X188203891Y-115297693D01*
X188203328Y-115295049D01*
X188201417Y-115293137D01*
X188197017Y-115265357D01*
X188191169Y-115237845D01*
X188192268Y-115235374D01*
X188191846Y-115232705D01*
X188204611Y-115207651D01*
X188216055Y-115181949D01*
X188219605Y-115178208D01*
X188290500Y-115107314D01*
X188290500Y-115107313D01*
X188293318Y-115104496D01*
X188347835Y-115076719D01*
X188363321Y-115075500D01*
X188725500Y-115075500D01*
X188783691Y-115094407D01*
X188819655Y-115143907D01*
X188824500Y-115174500D01*
X188824500Y-118304799D01*
X188850756Y-118368186D01*
X188850756Y-118368187D01*
X188866441Y-118406055D01*
X188866442Y-118406056D01*
X188866443Y-118406058D01*
X189470504Y-119010120D01*
X189498281Y-119064636D01*
X189499500Y-119080123D01*
X189499500Y-119084108D01*
X189499500Y-119215892D01*
X189523861Y-119306809D01*
X189533609Y-119343190D01*
X189599496Y-119457309D01*
X189599498Y-119457311D01*
X189599500Y-119457314D01*
X189692686Y-119550500D01*
X189692688Y-119550501D01*
X189692690Y-119550503D01*
X189806810Y-119616390D01*
X189806808Y-119616390D01*
X189806812Y-119616391D01*
X189806814Y-119616392D01*
X189934108Y-119650500D01*
X189934110Y-119650500D01*
X190065890Y-119650500D01*
X190065892Y-119650500D01*
X190193186Y-119616392D01*
X190307314Y-119550500D01*
X190400500Y-119457314D01*
X190405967Y-119447845D01*
X190466390Y-119343190D01*
X190466390Y-119343188D01*
X190466392Y-119343186D01*
X190500500Y-119215892D01*
X190500500Y-119084108D01*
X190466392Y-118956814D01*
X190466390Y-118956811D01*
X190466390Y-118956809D01*
X190400503Y-118842690D01*
X190400501Y-118842688D01*
X190400500Y-118842686D01*
X190307314Y-118749500D01*
X190307311Y-118749498D01*
X190307309Y-118749496D01*
X190193189Y-118683609D01*
X190193191Y-118683609D01*
X190143799Y-118670375D01*
X190065892Y-118649500D01*
X189934108Y-118649500D01*
X189930124Y-118649500D01*
X189871933Y-118630593D01*
X189860120Y-118620504D01*
X189404496Y-118164880D01*
X189376719Y-118110363D01*
X189375500Y-118094876D01*
X189375500Y-114945200D01*
X189370907Y-114934111D01*
X189370907Y-114934110D01*
X189333559Y-114843943D01*
X189056057Y-114566442D01*
X188996742Y-114541873D01*
X188954800Y-114524500D01*
X188954799Y-114524500D01*
X188363321Y-114524500D01*
X188305130Y-114505593D01*
X188293317Y-114495504D01*
X188290501Y-114492688D01*
X188290500Y-114492686D01*
X188197314Y-114399500D01*
X188197311Y-114399498D01*
X188197309Y-114399496D01*
X188141729Y-114367407D01*
X188083189Y-114333609D01*
X188083191Y-114333609D01*
X188020793Y-114316890D01*
X187955892Y-114299500D01*
X187824108Y-114299500D01*
X187759207Y-114316890D01*
X187696809Y-114333609D01*
X187582690Y-114399496D01*
X187489496Y-114492690D01*
X187423609Y-114606809D01*
X187423608Y-114606814D01*
X187389500Y-114734108D01*
X187389500Y-114865892D01*
X187418702Y-114974879D01*
X187415500Y-115035978D01*
X187376995Y-115083528D01*
X187323076Y-115099500D01*
X184084108Y-115099500D01*
X184029564Y-115114115D01*
X183956809Y-115133609D01*
X183842690Y-115199496D01*
X183749496Y-115292690D01*
X183683609Y-115406809D01*
X183683608Y-115406814D01*
X183649500Y-115534108D01*
X180198706Y-115534108D01*
X180225500Y-115507314D01*
X180234504Y-115491717D01*
X180242357Y-115478118D01*
X180283524Y-115406814D01*
X180291392Y-115393186D01*
X180325500Y-115265892D01*
X180325500Y-115134108D01*
X180291392Y-115006814D01*
X180291390Y-115006811D01*
X180291390Y-115006809D01*
X180225503Y-114892690D01*
X180225501Y-114892688D01*
X180225500Y-114892686D01*
X180132314Y-114799500D01*
X180132311Y-114799498D01*
X180132309Y-114799496D01*
X180018189Y-114733609D01*
X180018191Y-114733609D01*
X179968799Y-114720375D01*
X179890892Y-114699500D01*
X179890890Y-114699500D01*
X177248822Y-114699500D01*
X177190631Y-114680593D01*
X177178819Y-114670504D01*
X177107814Y-114599500D01*
X177107809Y-114599496D01*
X176993689Y-114533609D01*
X176993691Y-114533609D01*
X176944299Y-114520375D01*
X176866392Y-114499500D01*
X176734608Y-114499500D01*
X176656700Y-114520375D01*
X176607309Y-114533609D01*
X176493190Y-114599496D01*
X176399996Y-114692690D01*
X176334109Y-114806809D01*
X176334108Y-114806814D01*
X176300000Y-114934108D01*
X161300500Y-114934108D01*
X161300500Y-113784608D01*
X181987770Y-113784608D01*
X181987770Y-113916392D01*
X181995277Y-113944407D01*
X182021879Y-114043690D01*
X182087766Y-114157809D01*
X182087768Y-114157811D01*
X182087770Y-114157814D01*
X182180956Y-114251000D01*
X182180958Y-114251001D01*
X182180960Y-114251003D01*
X182295080Y-114316890D01*
X182295078Y-114316890D01*
X182295082Y-114316891D01*
X182295084Y-114316892D01*
X182422378Y-114351000D01*
X182422380Y-114351000D01*
X182554160Y-114351000D01*
X182554162Y-114351000D01*
X182681456Y-114316892D01*
X182681458Y-114316890D01*
X182681460Y-114316890D01*
X182734041Y-114286532D01*
X200904500Y-114286532D01*
X200904500Y-114493467D01*
X200944869Y-114696418D01*
X201024058Y-114887597D01*
X201139020Y-115059651D01*
X201139023Y-115059655D01*
X201285345Y-115205977D01*
X201457402Y-115320941D01*
X201648580Y-115400130D01*
X201851535Y-115440500D01*
X201851536Y-115440500D01*
X202358464Y-115440500D01*
X202358465Y-115440500D01*
X202561420Y-115400130D01*
X202752598Y-115320941D01*
X202924655Y-115205977D01*
X203070977Y-115059655D01*
X203185941Y-114887598D01*
X203265130Y-114696420D01*
X203305500Y-114493465D01*
X203305500Y-114286535D01*
X203265130Y-114083580D01*
X203185941Y-113892402D01*
X203070977Y-113720345D01*
X202924655Y-113574023D01*
X202752598Y-113459059D01*
X202752599Y-113459059D01*
X202752597Y-113459058D01*
X202561418Y-113379869D01*
X202358467Y-113339500D01*
X202358465Y-113339500D01*
X201851535Y-113339500D01*
X201851532Y-113339500D01*
X201648581Y-113379869D01*
X201457402Y-113459058D01*
X201285348Y-113574020D01*
X201139020Y-113720348D01*
X201024058Y-113892402D01*
X200944869Y-114083581D01*
X200904500Y-114286532D01*
X182734041Y-114286532D01*
X182795579Y-114251003D01*
X182795579Y-114251002D01*
X182795584Y-114251000D01*
X182901000Y-114145584D01*
X182966892Y-114031456D01*
X183001000Y-113904162D01*
X183001000Y-113772377D01*
X183001000Y-112834108D01*
X190224500Y-112834108D01*
X190224500Y-112965892D01*
X190251295Y-113065892D01*
X190258609Y-113093190D01*
X190324496Y-113207309D01*
X190324498Y-113207311D01*
X190324500Y-113207314D01*
X190417686Y-113300500D01*
X190417688Y-113300501D01*
X190417690Y-113300503D01*
X190531810Y-113366390D01*
X190531808Y-113366390D01*
X190531812Y-113366391D01*
X190531814Y-113366392D01*
X190659108Y-113400500D01*
X190659110Y-113400500D01*
X190794876Y-113400500D01*
X190853067Y-113419407D01*
X190864879Y-113429496D01*
X191151274Y-113715890D01*
X191318941Y-113883557D01*
X191340293Y-113892401D01*
X191340294Y-113892402D01*
X191363698Y-113902095D01*
X191420200Y-113925500D01*
X192126679Y-113925500D01*
X192184870Y-113944407D01*
X192196683Y-113954496D01*
X192199498Y-113957311D01*
X192199500Y-113957314D01*
X192292686Y-114050500D01*
X192292688Y-114050501D01*
X192292690Y-114050503D01*
X192406810Y-114116390D01*
X192406808Y-114116390D01*
X192406812Y-114116391D01*
X192406814Y-114116392D01*
X192534108Y-114150500D01*
X192534110Y-114150500D01*
X192665890Y-114150500D01*
X192665892Y-114150500D01*
X192793186Y-114116392D01*
X192793188Y-114116390D01*
X192793190Y-114116390D01*
X192907309Y-114050503D01*
X192907309Y-114050502D01*
X192907314Y-114050500D01*
X193000500Y-113957314D01*
X193018868Y-113925500D01*
X193066390Y-113843190D01*
X193066390Y-113843188D01*
X193066392Y-113843186D01*
X193100500Y-113715892D01*
X193100500Y-113584108D01*
X193066392Y-113456814D01*
X193066390Y-113456811D01*
X193066390Y-113456809D01*
X193000503Y-113342690D01*
X193000501Y-113342688D01*
X193000500Y-113342686D01*
X192907314Y-113249500D01*
X192907311Y-113249498D01*
X192907309Y-113249496D01*
X192793189Y-113183609D01*
X192793191Y-113183609D01*
X192743799Y-113170375D01*
X192665892Y-113149500D01*
X192624500Y-113149500D01*
X192566309Y-113130593D01*
X192530345Y-113081093D01*
X192525500Y-113050500D01*
X192525500Y-112934109D01*
X192525500Y-112934108D01*
X192491392Y-112806814D01*
X192491390Y-112806811D01*
X192491390Y-112806809D01*
X192425503Y-112692690D01*
X192425501Y-112692688D01*
X192425500Y-112692686D01*
X192332314Y-112599500D01*
X192332311Y-112599498D01*
X192329496Y-112596683D01*
X192301719Y-112542166D01*
X192300500Y-112526679D01*
X192300500Y-112105123D01*
X192302968Y-112097525D01*
X192301719Y-112089636D01*
X192312243Y-112068980D01*
X192319407Y-112046932D01*
X192329496Y-112035119D01*
X192435119Y-111929496D01*
X192489636Y-111901719D01*
X192505123Y-111900500D01*
X192640890Y-111900500D01*
X192640892Y-111900500D01*
X192768186Y-111866392D01*
X192768188Y-111866390D01*
X192768190Y-111866390D01*
X192882309Y-111800503D01*
X192882309Y-111800502D01*
X192882314Y-111800500D01*
X192975500Y-111707314D01*
X193041392Y-111593186D01*
X193075500Y-111465892D01*
X193075500Y-111334108D01*
X193049139Y-111235725D01*
X200904500Y-111235725D01*
X200904500Y-112544274D01*
X200907353Y-112574694D01*
X200907355Y-112574703D01*
X200952207Y-112702883D01*
X201032845Y-112812144D01*
X201032847Y-112812146D01*
X201032850Y-112812150D01*
X201032853Y-112812152D01*
X201032855Y-112812154D01*
X201142116Y-112892792D01*
X201142117Y-112892792D01*
X201142118Y-112892793D01*
X201270301Y-112937646D01*
X201300725Y-112940499D01*
X201300727Y-112940500D01*
X201300734Y-112940500D01*
X202909273Y-112940500D01*
X202909273Y-112940499D01*
X202939699Y-112937646D01*
X203067882Y-112892793D01*
X203177150Y-112812150D01*
X203257793Y-112702882D01*
X203302646Y-112574699D01*
X203305499Y-112544273D01*
X203305500Y-112544273D01*
X203305500Y-111235727D01*
X203305499Y-111235725D01*
X203302646Y-111205305D01*
X203302646Y-111205301D01*
X203257793Y-111077118D01*
X203177150Y-110967850D01*
X203177146Y-110967847D01*
X203177144Y-110967845D01*
X203067883Y-110887207D01*
X202939703Y-110842355D01*
X202939694Y-110842353D01*
X202909274Y-110839500D01*
X202909266Y-110839500D01*
X201300734Y-110839500D01*
X201300725Y-110839500D01*
X201270305Y-110842353D01*
X201270296Y-110842355D01*
X201142116Y-110887207D01*
X201032855Y-110967845D01*
X201032845Y-110967855D01*
X200952207Y-111077116D01*
X200907355Y-111205296D01*
X200907353Y-111205305D01*
X200904500Y-111235725D01*
X193049139Y-111235725D01*
X193041392Y-111206814D01*
X193041390Y-111206811D01*
X193041390Y-111206809D01*
X192975503Y-111092690D01*
X192975501Y-111092688D01*
X192975500Y-111092686D01*
X192882314Y-110999500D01*
X192882311Y-110999498D01*
X192882309Y-110999496D01*
X192768189Y-110933609D01*
X192768191Y-110933609D01*
X192718799Y-110920375D01*
X192640892Y-110899500D01*
X192509108Y-110899500D01*
X192431200Y-110920375D01*
X192381809Y-110933609D01*
X192267690Y-110999496D01*
X192174496Y-111092690D01*
X192108609Y-111206809D01*
X192074500Y-111334109D01*
X192074500Y-111469876D01*
X192055593Y-111528067D01*
X192045504Y-111539879D01*
X191868942Y-111716442D01*
X191791446Y-111793938D01*
X191791444Y-111793940D01*
X191791443Y-111793942D01*
X191771045Y-111843186D01*
X191749500Y-111895200D01*
X191749500Y-112526679D01*
X191730593Y-112584870D01*
X191720504Y-112596683D01*
X191717688Y-112599498D01*
X191717686Y-112599500D01*
X191624500Y-112692686D01*
X191624497Y-112692689D01*
X191624496Y-112692690D01*
X191558609Y-112806809D01*
X191551294Y-112834109D01*
X191532835Y-112903003D01*
X191524500Y-112934109D01*
X191524500Y-113070876D01*
X191517336Y-113092923D01*
X191513710Y-113115821D01*
X191508061Y-113121469D01*
X191505593Y-113129067D01*
X191486836Y-113142694D01*
X191470445Y-113159086D01*
X191462555Y-113160335D01*
X191456093Y-113165031D01*
X191432908Y-113165031D01*
X191410013Y-113168657D01*
X191402896Y-113165031D01*
X191394907Y-113165031D01*
X191355496Y-113140880D01*
X191254496Y-113039880D01*
X191226719Y-112985363D01*
X191225500Y-112969876D01*
X191225500Y-112834109D01*
X191219616Y-112812150D01*
X191191392Y-112706814D01*
X191191390Y-112706811D01*
X191191390Y-112706809D01*
X191125503Y-112592690D01*
X191125501Y-112592688D01*
X191125500Y-112592686D01*
X191032314Y-112499500D01*
X191032311Y-112499498D01*
X191032309Y-112499496D01*
X190918189Y-112433609D01*
X190918191Y-112433609D01*
X190856711Y-112417136D01*
X190790892Y-112399500D01*
X190659108Y-112399500D01*
X190593289Y-112417136D01*
X190531809Y-112433609D01*
X190417690Y-112499496D01*
X190324496Y-112592690D01*
X190258609Y-112706809D01*
X190258608Y-112706814D01*
X190224500Y-112834108D01*
X183001000Y-112834108D01*
X183001000Y-110134108D01*
X182966892Y-110006814D01*
X182966890Y-110006811D01*
X182966890Y-110006809D01*
X182901003Y-109892690D01*
X182901001Y-109892688D01*
X182901000Y-109892686D01*
X182807814Y-109799500D01*
X182807811Y-109799498D01*
X182807809Y-109799496D01*
X182693689Y-109733609D01*
X182693691Y-109733609D01*
X182644299Y-109720375D01*
X182566392Y-109699500D01*
X182434608Y-109699500D01*
X182356700Y-109720375D01*
X182307309Y-109733609D01*
X182193190Y-109799496D01*
X182099996Y-109892690D01*
X182034109Y-110006809D01*
X182000000Y-110134109D01*
X182000000Y-110723821D01*
X181999500Y-110731452D01*
X181999500Y-110868548D01*
X182000000Y-110876178D01*
X182000000Y-113725929D01*
X181997247Y-113746836D01*
X181997389Y-113748516D01*
X181997029Y-113750051D01*
X181987770Y-113784608D01*
X161300500Y-113784608D01*
X161300500Y-111584108D01*
X167899500Y-111584108D01*
X167899500Y-111715892D01*
X167922171Y-111800503D01*
X167933609Y-111843190D01*
X167999496Y-111957309D01*
X167999498Y-111957311D01*
X167999500Y-111957314D01*
X168092686Y-112050500D01*
X168092688Y-112050501D01*
X168092690Y-112050503D01*
X168206810Y-112116390D01*
X168206808Y-112116390D01*
X168206812Y-112116391D01*
X168206814Y-112116392D01*
X168334108Y-112150500D01*
X168334110Y-112150500D01*
X168465890Y-112150500D01*
X168465892Y-112150500D01*
X168593186Y-112116392D01*
X168593188Y-112116390D01*
X168593190Y-112116390D01*
X168707309Y-112050503D01*
X168707309Y-112050502D01*
X168707314Y-112050500D01*
X168800500Y-111957314D01*
X168800501Y-111957311D01*
X168803317Y-111954496D01*
X168857834Y-111926719D01*
X168873321Y-111925500D01*
X169054799Y-111925500D01*
X169054800Y-111925500D01*
X169156058Y-111883557D01*
X169233557Y-111806058D01*
X169233556Y-111806058D01*
X169585120Y-111454496D01*
X169639636Y-111426719D01*
X169655123Y-111425500D01*
X171769877Y-111425500D01*
X171828068Y-111444407D01*
X171839881Y-111454496D01*
X172748004Y-112362619D01*
X172775781Y-112417136D01*
X172777000Y-112432623D01*
X172777000Y-112436608D01*
X172777000Y-112568392D01*
X172807079Y-112680651D01*
X172811109Y-112695690D01*
X172876996Y-112809809D01*
X172876998Y-112809811D01*
X172877000Y-112809814D01*
X172970186Y-112903000D01*
X172970188Y-112903001D01*
X172970190Y-112903003D01*
X173084310Y-112968890D01*
X173084308Y-112968890D01*
X173084312Y-112968891D01*
X173084314Y-112968892D01*
X173211608Y-113003000D01*
X173211610Y-113003000D01*
X173343390Y-113003000D01*
X173343392Y-113003000D01*
X173470686Y-112968892D01*
X173470688Y-112968890D01*
X173470690Y-112968890D01*
X173584809Y-112903003D01*
X173584809Y-112903002D01*
X173584814Y-112903000D01*
X173678000Y-112809814D01*
X173679735Y-112806809D01*
X173743890Y-112695690D01*
X173743890Y-112695688D01*
X173743892Y-112695686D01*
X173778000Y-112568392D01*
X173778000Y-112436608D01*
X173743892Y-112309314D01*
X173743890Y-112309311D01*
X173743890Y-112309309D01*
X173678003Y-112195190D01*
X173678001Y-112195188D01*
X173678000Y-112195186D01*
X173584814Y-112102000D01*
X173584811Y-112101998D01*
X173584809Y-112101996D01*
X173470689Y-112036109D01*
X173470691Y-112036109D01*
X173421299Y-112022875D01*
X173343392Y-112002000D01*
X173211608Y-112002000D01*
X173207623Y-112002000D01*
X173149432Y-111983093D01*
X173137619Y-111973004D01*
X172619111Y-111454496D01*
X172081058Y-110916443D01*
X172081056Y-110916442D01*
X171979800Y-110874500D01*
X169554800Y-110874500D01*
X169445200Y-110874500D01*
X169445198Y-110874500D01*
X169343944Y-110916440D01*
X168929103Y-111331282D01*
X168874586Y-111359059D01*
X168814154Y-111349488D01*
X168789098Y-111331284D01*
X168707314Y-111249500D01*
X168707311Y-111249498D01*
X168707309Y-111249496D01*
X168593189Y-111183609D01*
X168593191Y-111183609D01*
X168543799Y-111170375D01*
X168465892Y-111149500D01*
X168334108Y-111149500D01*
X168256200Y-111170375D01*
X168206809Y-111183609D01*
X168092690Y-111249496D01*
X167999496Y-111342690D01*
X167933609Y-111456809D01*
X167930108Y-111469876D01*
X167899500Y-111584108D01*
X161300500Y-111584108D01*
X161300500Y-105103226D01*
X198099500Y-105103226D01*
X198099500Y-107411765D01*
X198102353Y-107442194D01*
X198147208Y-107570385D01*
X198227845Y-107679644D01*
X198227847Y-107679646D01*
X198227850Y-107679650D01*
X198227853Y-107679652D01*
X198227855Y-107679654D01*
X198337114Y-107760291D01*
X198337116Y-107760291D01*
X198337118Y-107760293D01*
X198465302Y-107805146D01*
X198495735Y-107808000D01*
X200804264Y-107807999D01*
X200804265Y-107807999D01*
X200810350Y-107807428D01*
X200834698Y-107805146D01*
X200962882Y-107760293D01*
X201072150Y-107679650D01*
X201152793Y-107570382D01*
X201197646Y-107442198D01*
X201200500Y-107411765D01*
X201200499Y-105103236D01*
X201197646Y-105072802D01*
X201152793Y-104944618D01*
X201152791Y-104944616D01*
X201152791Y-104944614D01*
X201072154Y-104835355D01*
X201072152Y-104835353D01*
X201072150Y-104835350D01*
X201072146Y-104835347D01*
X201072144Y-104835345D01*
X200962885Y-104754708D01*
X200948697Y-104749743D01*
X200834698Y-104709854D01*
X200834696Y-104709853D01*
X200834694Y-104709853D01*
X200804272Y-104707000D01*
X198495734Y-104707000D01*
X198465305Y-104709853D01*
X198337114Y-104754708D01*
X198227855Y-104835345D01*
X198227845Y-104835355D01*
X198147208Y-104944614D01*
X198102353Y-105072805D01*
X198099500Y-105103226D01*
X161300500Y-105103226D01*
X161300500Y-100887130D01*
X177494500Y-100887130D01*
X177494500Y-101022869D01*
X177529630Y-101153974D01*
X177529632Y-101153978D01*
X177597496Y-101271521D01*
X177597498Y-101271524D01*
X177693476Y-101367502D01*
X177693478Y-101367503D01*
X177811021Y-101435367D01*
X177811025Y-101435369D01*
X177942130Y-101470499D01*
X177942132Y-101470500D01*
X177942133Y-101470500D01*
X178077868Y-101470500D01*
X178077868Y-101470499D01*
X178208975Y-101435369D01*
X178326524Y-101367502D01*
X178422502Y-101271524D01*
X178490369Y-101153975D01*
X178525500Y-101022867D01*
X178525500Y-100887133D01*
X178525499Y-100887130D01*
X183274500Y-100887130D01*
X183274500Y-101022869D01*
X183309630Y-101153974D01*
X183309632Y-101153978D01*
X183377496Y-101271521D01*
X183377498Y-101271524D01*
X183473476Y-101367502D01*
X183473478Y-101367503D01*
X183591021Y-101435367D01*
X183591025Y-101435369D01*
X183722130Y-101470499D01*
X183722132Y-101470500D01*
X183722133Y-101470500D01*
X183857868Y-101470500D01*
X183857868Y-101470499D01*
X183988975Y-101435369D01*
X184106524Y-101367502D01*
X184202502Y-101271524D01*
X184270369Y-101153975D01*
X184305500Y-101022867D01*
X184305500Y-100887133D01*
X184270369Y-100756025D01*
X184202502Y-100638476D01*
X184106524Y-100542498D01*
X184106521Y-100542496D01*
X183988978Y-100474632D01*
X183988974Y-100474630D01*
X183857869Y-100439500D01*
X183857867Y-100439500D01*
X183722133Y-100439500D01*
X183722130Y-100439500D01*
X183591025Y-100474630D01*
X183591021Y-100474632D01*
X183473478Y-100542496D01*
X183377496Y-100638478D01*
X183309632Y-100756021D01*
X183309630Y-100756025D01*
X183274500Y-100887130D01*
X178525499Y-100887130D01*
X178490369Y-100756025D01*
X178422502Y-100638476D01*
X178326524Y-100542498D01*
X178326521Y-100542496D01*
X178208978Y-100474632D01*
X178208974Y-100474630D01*
X178077869Y-100439500D01*
X178077867Y-100439500D01*
X177942133Y-100439500D01*
X177942130Y-100439500D01*
X177811025Y-100474630D01*
X177811021Y-100474632D01*
X177693478Y-100542496D01*
X177597496Y-100638478D01*
X177529632Y-100756021D01*
X177529630Y-100756025D01*
X177494500Y-100887130D01*
X161300500Y-100887130D01*
X161300500Y-98391374D01*
X161319407Y-98333183D01*
X161368907Y-98297219D01*
X161430093Y-98297219D01*
X161479593Y-98333183D01*
X161488697Y-98348421D01*
X161495713Y-98362990D01*
X161495714Y-98362994D01*
X161639162Y-98591289D01*
X161807266Y-98802085D01*
X161997915Y-98992734D01*
X162208711Y-99160838D01*
X162437003Y-99304284D01*
X162437005Y-99304285D01*
X162437017Y-99304291D01*
X162649556Y-99406644D01*
X162679921Y-99421267D01*
X162798719Y-99462836D01*
X162934405Y-99510315D01*
X162934408Y-99510315D01*
X162934409Y-99510316D01*
X163197268Y-99570312D01*
X163269515Y-99578452D01*
X163465174Y-99600499D01*
X163465190Y-99600499D01*
X163465191Y-99600500D01*
X163465192Y-99600500D01*
X163734808Y-99600500D01*
X163734809Y-99600500D01*
X163734810Y-99600499D01*
X163734825Y-99600499D01*
X163906402Y-99581165D01*
X164002732Y-99570312D01*
X164265591Y-99510316D01*
X164520079Y-99421267D01*
X164762997Y-99304284D01*
X164991289Y-99160838D01*
X165202085Y-98992734D01*
X165392734Y-98802085D01*
X165560838Y-98591289D01*
X165704284Y-98362997D01*
X165821267Y-98120079D01*
X165910316Y-97865591D01*
X165970312Y-97602732D01*
X165981165Y-97506402D01*
X166000499Y-97334825D01*
X166000500Y-97334808D01*
X166000500Y-97065191D01*
X166000499Y-97065174D01*
X165970312Y-96797271D01*
X165970311Y-96797265D01*
X165910315Y-96534405D01*
X165821267Y-96279922D01*
X165821266Y-96279919D01*
X165704291Y-96037017D01*
X165704285Y-96037005D01*
X165560837Y-95808710D01*
X165549715Y-95794763D01*
X165392734Y-95597915D01*
X165202085Y-95407266D01*
X164991289Y-95239162D01*
X164762997Y-95095716D01*
X164762994Y-95095714D01*
X164762989Y-95095712D01*
X164748420Y-95088696D01*
X164704196Y-95046412D01*
X164693271Y-94986210D01*
X164719819Y-94931084D01*
X164773699Y-94902091D01*
X164791375Y-94900500D01*
X203808625Y-94900500D01*
X203866816Y-94919407D01*
G37*
%TD.AperFunction*%
%TD*%
M02*
